<svg width="229" height="40" viewBox="0 0 229 40" fill="none" xmlns="http://www.w3.org/2000/svg">
<g clip-path="url(#clip0_1177_15662)">
<g clip-path="url(#clip1_1177_15662)">
<path opacity="0.998" fill-rule="evenodd" clip-rule="evenodd" d="M109.266 0.0449219C109.283 0.0853942 109.295 0.128253 109.301 0.173496C109.368 0.166152 109.435 0.160512 109.503 0.156578C109.449 0.228132 109.398 0.301442 109.349 0.376507C109.67 1.66027 109.868 2.9618 109.945 4.28109C110.036 5.69919 109.994 7.11351 109.819 8.52403C109.667 9.75637 109.381 10.9587 108.963 12.1309C108.562 13.2441 108.011 14.2772 107.312 15.2302C106.058 16.8936 104.43 18.0721 102.426 18.7659C101.225 19.1701 99.9902 19.407 98.7204 19.4765C97.7223 19.5354 96.7242 19.5885 95.7254 19.6355C95.6453 19.6362 95.5666 19.6294 95.4886 19.6152C95.421 19.6576 95.3465 19.679 95.2657 19.6795C95.024 19.6851 94.783 19.684 94.5413 19.6761C94.6479 19.5295 94.7551 19.3829 94.8617 19.2363C94.7899 19.0298 94.721 18.8223 94.6562 18.6137C94.4403 17.9138 94.2216 17.2145 94.0015 16.5159C93.6734 15.454 93.4875 14.3689 93.4443 13.261C93.376 10.9627 94.0328 8.88755 95.4154 7.03528C96.0834 6.15822 96.8558 5.37437 97.7313 4.68373C98.4613 4.1104 99.2275 3.59836 100.03 3.14761C101.514 2.3241 103.072 1.66093 104.703 1.1581C106.151 0.702171 107.63 0.381866 109.14 0.19718C109.156 0.191458 109.17 0.181308 109.179 0.166729C109.206 0.125071 109.236 0.0844692 109.266 0.0449219ZM99.2846 3.60439C99.2811 3.6139 99.2741 3.61842 99.2637 3.61792C99.2672 3.60841 99.2741 3.60389 99.2846 3.60439ZM99.2637 3.61792C99.2602 3.62744 99.2532 3.63195 99.2428 3.63146C99.2463 3.62194 99.2532 3.61743 99.2637 3.61792ZM99.2428 3.63146C99.2024 3.66342 99.1606 3.69387 99.1174 3.72281C99.1084 3.72732 99.0986 3.72732 99.0896 3.72281C99.1397 3.69065 99.1912 3.6602 99.2428 3.63146Z" fill="#1A6332"/>
<path fill-rule="evenodd" clip-rule="evenodd" d="M106.096 4.40241C105.258 5.5707 104.421 6.73914 103.582 7.90774C103.545 7.95694 103.508 8.00654 103.471 8.05662C103.319 8.17666 103.165 8.29509 103.011 8.41189C102.794 8.60928 102.602 8.82698 102.436 9.06491C102.323 9.22955 102.215 9.39649 102.109 9.56567C101.805 9.9321 101.504 10.2998 101.203 10.6687C101.035 10.5987 100.859 10.5728 100.677 10.5909C100.618 10.6125 100.577 10.652 100.556 10.7093C100.552 10.7828 100.541 10.8549 100.521 10.9258C100.413 11.2814 100.283 11.6287 100.131 11.968C98.4431 14.299 96.754 16.6292 95.0635 18.9583C94.7404 17.9507 94.4283 16.9401 94.1267 15.9267C93.8363 14.8326 93.7039 13.7206 93.7297 12.5905C93.7903 10.9216 94.2667 9.37653 95.1576 7.95511C95.7225 7.07309 96.3988 6.27569 97.1879 5.56296C98.0934 4.75565 99.0776 4.05413 100.141 3.45841C101.623 2.63293 103.178 1.96976 104.808 1.4689C106.104 1.06191 107.426 0.763029 108.775 0.572266C108.783 0.574521 108.791 0.576777 108.799 0.579033C107.903 1.85722 107.003 3.13168 106.096 4.40241Z" fill="#ADD035"/>
<path fill-rule="evenodd" clip-rule="evenodd" d="M103.597 7.90774C104.434 6.73955 105.273 5.57111 106.111 4.40241C107.035 3.12258 107.965 1.84587 108.901 0.572266C109.015 1.04588 109.108 1.52408 109.179 2.00688C109.504 4.17555 109.532 6.34777 109.263 8.52354C109.1 9.81341 108.793 11.0698 108.343 12.2928C107.931 13.4013 107.367 14.4254 106.651 15.365C105.327 17.0508 103.615 18.1955 101.514 18.7993C100.565 19.0672 99.5965 19.2318 98.6095 19.2933C97.7409 19.3434 96.8731 19.393 96.0045 19.4422C95.8882 19.4493 95.7726 19.4515 95.6562 19.4489C95.9021 19.208 96.1076 18.9384 96.2727 18.6403C96.763 17.9554 97.2624 17.2764 97.7702 16.6034C98.0815 16.1806 98.388 15.7543 98.6896 15.3244C98.7585 15.2182 98.8233 15.1099 98.8846 14.9996C98.9696 14.9057 99.0615 14.8189 99.1597 14.7391C99.8173 14.2198 100.496 13.7292 101.197 13.2672C101.195 13.2385 101.184 13.2138 101.162 13.1928C100.728 13.2894 100.296 13.3886 99.8632 13.4906C99.8583 13.4883 99.8542 13.486 99.8493 13.4838C100.098 13.0596 100.363 12.6468 100.647 12.2454C100.698 12.1771 100.755 12.1129 100.817 12.0526C100.892 11.9988 100.976 11.9785 101.068 11.9917C101.174 12.0118 101.281 12.0186 101.389 12.012C101.52 11.9876 101.639 11.9357 101.744 11.8563C101.825 11.7934 101.904 11.728 101.981 11.6601C102.041 11.6134 102.102 11.5695 102.165 11.5281C102.193 11.4708 102.176 11.4313 102.113 11.4097C102.042 11.3918 101.97 11.3805 101.897 11.3759C101.716 11.3682 101.535 11.3637 101.354 11.3623C101.348 11.3602 101.343 11.3568 101.34 11.3522C101.387 11.2831 101.423 11.2086 101.448 11.1289C101.591 10.9186 101.744 10.7156 101.908 10.5198C102.169 10.2075 102.429 9.894 102.688 9.5792C102.812 9.45814 102.953 9.35778 103.109 9.27807C103.361 9.15335 103.621 9.04738 103.889 8.96002C103.941 8.94547 103.966 8.91278 103.962 8.86189C103.949 8.84423 103.932 8.83185 103.91 8.82468C103.827 8.80898 103.744 8.79768 103.659 8.79084C103.566 8.78854 103.473 8.78177 103.381 8.77054C103.342 8.76912 103.305 8.7612 103.269 8.74686C103.319 8.64569 103.376 8.54865 103.44 8.45587C103.608 8.21571 103.776 7.97433 103.941 7.7318C103.951 7.67604 103.93 7.65689 103.875 7.67428C103.772 7.7837 103.664 7.88859 103.551 7.98895C103.564 7.96167 103.579 7.93461 103.597 7.90774Z" fill="#E6EB9C"/>
<path opacity="0.999" fill-rule="evenodd" clip-rule="evenodd" d="M21.5397 14.8906C22.7889 14.9422 24.0379 14.9952 25.287 15.0497C26.2459 15.0519 27.2047 15.0542 28.1636 15.0564C28.3851 15.2558 28.6045 15.4577 28.8218 15.6621C28.8019 16.3197 28.7601 16.9761 28.6965 17.6313C28.6492 18.3824 28.6027 19.1335 28.5572 19.8847C28.5439 20.2929 28.5346 20.7011 28.5293 21.1095C28.5246 22.5352 28.5246 23.9607 28.5293 25.3863C28.8374 24.999 29.1822 24.6437 29.5636 24.3205C30.6367 23.4861 31.8649 23.079 33.2482 23.0991C33.9743 23.0919 34.6848 23.1901 35.3796 23.3934C35.9189 23.5618 36.4134 23.8099 36.8632 24.1378C37.753 24.7963 38.4089 25.6297 38.8308 26.6382C39.1708 27.4879 39.4006 28.3654 39.5204 29.2706C39.6785 30.4625 39.69 31.6558 39.5552 32.8504C39.4082 34.1496 39.0019 35.3653 38.3363 36.4978C37.6079 37.6837 36.6015 38.5712 35.3169 39.1606C34.5963 39.4767 33.8441 39.6887 33.0602 39.7967C32.3624 39.893 31.6613 39.9314 30.9567 39.9118C29.1408 39.8742 27.3508 39.6464 25.5865 39.2283C24.9769 39.0848 24.3732 38.9224 23.7756 38.7411C23.8292 38.1521 23.8768 37.5622 23.9183 36.9715C23.9683 36.1299 24.0217 35.2885 24.0785 34.4474C24.0832 29.7488 24.0832 25.0502 24.0785 20.3516C24.073 20.2068 24.0613 20.0625 24.0437 19.9185C23.9517 19.1623 23.8553 18.4067 23.7547 17.6516C22.9168 17.4678 22.0786 17.2851 21.2402 17.1034C21.3395 16.3658 21.4393 15.6282 21.5397 14.8906ZM31.4791 26.5435C31.8813 26.5295 32.2737 26.5825 32.6562 26.7025C33.0831 26.8506 33.4233 27.1066 33.6766 27.4706C34.0055 27.9386 34.2238 28.4529 34.3313 29.0134C34.6071 30.3506 34.6721 31.6996 34.5263 33.0601C34.4678 33.5976 34.3679 34.1277 34.2268 34.6504C34.053 35.267 33.7338 35.7982 33.2691 36.244C32.9165 36.5676 32.5009 36.7797 32.0223 36.8801C31.549 36.9791 31.0707 37.0107 30.5875 36.9749C30.1566 36.9416 29.734 36.865 29.3199 36.7448C29.1021 36.6762 28.8839 36.6096 28.6651 36.5452C28.6403 36.0581 28.6182 35.5708 28.599 35.0835C28.5943 33.6015 28.5943 32.1195 28.599 30.6375C28.613 30.041 28.6989 29.4545 28.8567 28.8781C28.9862 28.3807 29.2067 27.9273 29.5184 27.5179C29.7197 27.2743 29.953 27.0657 30.2184 26.892C30.6081 26.6706 31.0283 26.5544 31.4791 26.5435Z" fill="#243974"/>
<path opacity="0.999" fill-rule="evenodd" clip-rule="evenodd" d="M39.8093 14.8906C41.07 14.9424 42.3307 14.9954 43.5914 15.0497C44.5386 15.0519 45.4859 15.0542 46.4332 15.0564C46.6663 15.2581 46.8973 15.4622 47.1262 15.6688C47.0724 16.2279 47.019 16.7873 46.966 17.3471C46.9161 18.0935 46.8696 18.8401 46.8267 19.587C46.8141 19.9951 46.8048 20.4035 46.7988 20.8118C46.7942 25.1765 46.7942 29.5413 46.7988 33.906C46.8104 34.6794 46.8557 35.4474 46.9347 36.2102C46.9794 36.5203 47.0258 36.8305 47.074 37.1407C47.8263 37.2079 48.5785 37.2756 49.3307 37.3437C49.2661 38.0926 49.2011 38.8415 49.1357 39.5903C47.3479 39.5892 45.5602 39.5903 43.7725 39.5937C42.5072 39.6477 41.2418 39.7007 39.9764 39.7527C39.9159 39.0266 39.8625 38.3003 39.8162 37.5738C40.557 37.4414 41.2977 37.3083 42.0381 37.1745C42.0872 36.896 42.1301 36.6162 42.167 36.3354C42.2286 35.8754 42.289 35.4152 42.3481 34.9549C42.3603 34.8265 42.3696 34.698 42.3759 34.5692C42.3806 29.7939 42.3806 25.0187 42.3759 20.2434C42.3645 20.033 42.3459 19.8232 42.3202 19.614C42.2392 18.9584 42.1476 18.3042 42.0451 17.6516C41.2 17.4689 40.3549 17.2862 39.5098 17.1034C39.6064 16.3654 39.7062 15.6278 39.8093 14.8906Z" fill="#243974"/>
<path opacity="0.999" fill-rule="evenodd" clip-rule="evenodd" d="M148.96 32.0519C148.971 32.048 148.98 32.0423 148.988 32.0349C148.986 32.0327 148.983 32.0304 148.981 32.0282C148.99 32.0261 148.998 32.0227 149.006 32.018C149.008 32.0202 149.011 32.0225 149.013 32.0248C149.018 32.0127 149.027 32.0025 149.037 31.9943C149.035 31.9921 149.032 31.9898 149.03 31.9876C149.041 31.9834 149.05 31.9778 149.058 31.9706C149.068 31.9638 149.077 31.957 149.086 31.9503C149.1 31.9438 149.112 31.9348 149.124 31.9233C149.126 31.9255 149.129 31.9278 149.131 31.93C149.138 31.9177 149.146 31.9064 149.155 31.8962C149.164 31.8913 149.173 31.889 149.183 31.8894C149.183 31.8823 149.183 31.8756 149.187 31.8691C149.194 31.8777 149.199 31.8777 149.204 31.8691C149.213 31.8613 149.222 31.8545 149.232 31.8488C149.238 31.8408 149.245 31.8329 149.253 31.8252C149.272 31.8179 149.289 31.8078 149.305 31.7947C149.307 31.7969 149.31 31.7992 149.312 31.8015C149.322 31.7862 149.334 31.7749 149.35 31.7676C149.359 31.7598 149.369 31.753 149.378 31.7473C149.396 31.7403 149.411 31.729 149.424 31.7135C149.426 31.7157 149.428 31.718 149.431 31.7203C149.436 31.7002 149.443 31.6979 149.451 31.7135C149.459 31.6979 149.472 31.6877 149.49 31.683C149.488 31.6808 149.485 31.6785 149.483 31.6763C149.496 31.6738 149.508 31.6682 149.518 31.6594C149.522 31.6608 149.525 31.663 149.528 31.6661C149.54 31.6578 149.55 31.6487 149.559 31.6391C149.564 31.6362 149.568 31.6318 149.57 31.6255C149.58 31.6307 149.587 31.6273 149.594 31.6154C149.603 31.6121 149.612 31.6109 149.622 31.612C149.619 31.5955 149.624 31.5909 149.636 31.5985C149.659 31.5874 149.68 31.5738 149.699 31.5579C149.706 31.559 149.711 31.5568 149.713 31.5511C149.727 31.5477 149.741 31.5443 149.754 31.5409C149.745 31.5364 149.745 31.5319 149.754 31.5274C149.764 31.5228 149.772 31.5239 149.779 31.5308C149.787 31.516 149.8 31.5093 149.817 31.5105C149.816 31.5034 149.817 31.4966 149.821 31.4902C149.833 31.4928 149.845 31.4928 149.855 31.4902C149.858 31.4754 149.865 31.4709 149.876 31.4767C149.89 31.4624 149.908 31.4545 149.929 31.453C149.943 31.4465 149.954 31.4364 149.96 31.4225C149.969 31.4233 149.978 31.4256 149.988 31.4293C149.995 31.4063 150.009 31.3996 150.03 31.409C150.046 31.3969 150.064 31.3856 150.082 31.3751C150.094 31.3824 150.103 31.3779 150.106 31.3616C150.108 31.3638 150.111 31.3661 150.113 31.3684C150.149 31.3427 150.186 31.3246 150.225 31.3142C150.234 31.3151 150.243 31.3173 150.252 31.321C150.255 31.3088 150.259 31.3066 150.266 31.3142C150.269 31.308 150.273 31.3024 150.277 31.2973C150.298 31.2958 150.315 31.2879 150.329 31.2736C150.341 31.2736 150.352 31.2736 150.364 31.2736C150.387 31.2615 150.41 31.2503 150.434 31.2398C150.441 31.2475 150.445 31.2452 150.447 31.233C150.454 31.2353 150.461 31.2376 150.468 31.2398C150.496 31.2188 150.527 31.2063 150.562 31.2026C150.567 31.1975 150.57 31.1919 150.573 31.1857C150.585 31.193 150.598 31.1941 150.611 31.1891C150.638 31.1781 150.665 31.1657 150.691 31.1518C150.693 31.1541 150.696 31.1564 150.698 31.1586C150.706 31.1533 150.714 31.1487 150.723 31.1451C150.736 31.1459 150.748 31.1459 150.761 31.1451C150.764 31.1245 150.768 31.1222 150.775 31.1383C150.829 31.1186 150.888 31.0995 150.952 31.0808C150.975 31.0794 150.996 31.0738 151.015 31.0639C151.019 31.0653 151.023 31.0675 151.026 31.0706C151.044 31.0536 151.063 31.0492 151.081 31.0571C151.083 31.0503 151.086 31.0436 151.088 31.0368C151.128 31.0459 151.168 31.0391 151.207 31.0165C153.05 30.7201 154.914 30.4246 156.796 30.13C156.799 29.5999 156.796 29.0697 156.786 28.5398C156.769 28.2153 156.723 27.895 156.647 27.5788C156.552 27.1717 156.364 26.813 156.082 26.5029C155.818 26.244 155.501 26.0737 155.132 25.992C154.709 25.9007 154.282 25.8737 153.85 25.9108C153.296 25.961 152.753 26.0625 152.22 26.2153C151.967 26.2848 151.717 26.3603 151.468 26.442C151.389 26.9002 151.308 27.3582 151.224 27.8157C151.24 28.2779 151.251 28.7403 151.255 29.2029C150.442 29.2382 149.628 29.272 148.814 29.3044C148.661 27.5233 148.506 25.7425 148.347 23.9618C148.348 23.9543 148.35 23.9476 148.354 23.9415C148.822 23.8213 149.295 23.7175 149.775 23.6303C150.414 23.5208 151.055 23.4215 151.698 23.3325C152.275 23.2649 152.853 23.2017 153.432 23.143C154.461 23.0536 155.485 23.0988 156.504 23.2784C157.317 23.4237 158.076 23.7033 158.781 24.1175C159.854 24.7786 160.575 25.7023 160.944 26.8886C161.13 27.5117 161.23 28.1478 161.244 28.7969C161.246 30.4819 161.248 32.1669 161.251 33.8519C161.257 34.7169 161.315 35.5786 161.425 36.4369C161.463 36.6739 161.501 36.9107 161.54 37.1474C161.983 37.1921 162.427 37.2327 162.87 37.2692C162.673 36.7543 162.565 36.222 162.546 35.6722C162.507 35.0587 162.577 34.4542 162.755 33.8587C163.005 33.0858 163.437 32.452 164.051 31.9571C164.053 31.9593 164.055 31.9616 164.057 31.9639C164.071 31.9501 164.083 31.9344 164.092 31.9165C164.095 31.9196 164.099 31.9219 164.103 31.9233C164.117 31.912 164.131 31.9007 164.145 31.8894C164.149 31.8909 164.152 31.8931 164.155 31.8962C164.163 31.8849 164.171 31.8737 164.179 31.8624C164.186 31.8547 164.192 31.8547 164.197 31.8624C164.207 31.8573 164.209 31.8516 164.2 31.8455C164.228 31.8409 164.248 31.8263 164.259 31.8015C164.296 31.7917 164.328 31.7714 164.357 31.7406C164.367 31.7428 164.376 31.7428 164.385 31.7406C164.4 31.7167 164.422 31.7021 164.451 31.6966C164.48 31.6799 164.506 31.6606 164.531 31.6391C164.533 31.6413 164.536 31.6436 164.538 31.6458C164.572 31.6173 164.611 31.5947 164.653 31.5782C164.713 31.5507 164.773 31.5191 164.834 31.4834C164.835 31.4871 164.837 31.4894 164.841 31.4902C164.897 31.458 164.957 31.4298 165.022 31.4056C165.029 31.3937 165.037 31.3903 165.047 31.3954C165.063 31.3919 165.076 31.3829 165.085 31.3684C165.089 31.3698 165.092 31.372 165.095 31.3751C165.139 31.3544 165.182 31.3341 165.224 31.3142C165.242 31.3172 165.258 31.3115 165.273 31.2973C165.298 31.2957 165.32 31.2878 165.339 31.2736C165.341 31.2759 165.344 31.2782 165.346 31.2804C165.352 31.2736 165.358 31.2669 165.363 31.2601C165.372 31.2696 165.379 31.2673 165.381 31.2533C165.395 31.2621 165.405 31.2575 165.409 31.2398C165.428 31.2477 165.444 31.2431 165.457 31.2263C165.464 31.2285 165.471 31.2308 165.478 31.233C165.507 31.2205 165.535 31.207 165.562 31.1924C165.564 31.197 165.567 31.2014 165.569 31.206C165.573 31.1882 165.582 31.1837 165.597 31.1924C165.602 31.1879 165.606 31.1834 165.611 31.1789C165.62 31.1789 165.63 31.1789 165.639 31.1789C165.657 31.1715 165.674 31.1625 165.691 31.1518C165.706 31.1577 165.719 31.1533 165.729 31.1383C165.742 31.1559 165.751 31.1536 165.757 31.1315C165.765 31.138 165.772 31.1357 165.778 31.1248C165.78 31.1293 165.783 31.1338 165.785 31.1383C165.804 31.128 165.822 31.1167 165.841 31.1045C165.843 31.109 165.845 31.1135 165.848 31.118C165.858 31.1107 165.868 31.1039 165.879 31.0977C165.887 31.1011 165.896 31.1033 165.903 31.1045C165.944 31.0796 165.986 31.0683 166.029 31.0706C166.036 31.0639 166.043 31.0571 166.05 31.0503C166.068 31.0437 166.089 31.0437 166.112 31.0503C166.116 31.0369 166.123 31.0347 166.133 31.0436C166.151 31.0325 166.169 31.0258 166.185 31.0233C166.194 31.031 166.203 31.0287 166.21 31.0165C166.219 31.0254 166.226 31.0231 166.231 31.0097C166.233 31.012 166.235 31.0143 166.238 31.0165C166.262 31.0129 166.286 31.0061 166.311 30.9962C166.405 30.9758 166.508 30.9566 166.617 30.9387C168.331 30.6684 170.044 30.3988 171.757 30.13C171.759 29.6676 171.757 29.2052 171.754 28.7428C171.746 28.3166 171.688 27.897 171.58 27.4841C171.467 27.0572 171.248 26.693 170.922 26.3912C170.642 26.171 170.324 26.0289 169.967 25.9649C169.512 25.8848 169.054 25.8735 168.595 25.9311C167.858 26.029 167.137 26.1994 166.436 26.442C166.35 26.8922 166.268 27.3434 166.189 27.7954C166.196 28.2454 166.206 28.6954 166.22 29.1454C166.218 29.1646 166.215 29.1838 166.213 29.2029C165.401 29.2382 164.588 29.2721 163.775 29.3044C163.62 27.5281 163.465 25.7517 163.309 23.9754C163.309 23.9635 163.312 23.9522 163.316 23.9415C163.945 23.7795 164.581 23.6487 165.224 23.5491C166.408 23.3478 167.599 23.2035 168.797 23.116C169.751 23.0628 170.696 23.1283 171.632 23.3122C172.401 23.4679 173.118 23.7454 173.784 24.1446C173.974 24.2671 174.158 24.398 174.335 24.537C174.533 24.7069 174.731 24.8783 174.927 25.0513C174.927 25.0603 174.927 25.0694 174.927 25.0784C174.93 25.0833 174.935 25.0867 174.941 25.0886C174.951 25.093 174.963 25.0976 174.975 25.1021C174.978 25.1105 174.983 25.1173 174.989 25.1224C174.992 25.1273 174.997 25.1307 175.003 25.1325C174.995 25.1387 174.996 25.1444 175.007 25.1495C175.01 25.1464 175.013 25.1441 175.017 25.1427C175.029 25.1564 175.041 25.1699 175.052 25.1833C175.043 25.1855 175.043 25.1878 175.052 25.1901C175.06 25.1981 175.06 25.206 175.052 25.2138C175.06 25.2274 175.069 25.2307 175.08 25.2239C175.085 25.2329 175.092 25.2397 175.101 25.2442C175.097 25.2525 175.092 25.2604 175.087 25.2679C175.09 25.2728 175.095 25.2761 175.101 25.278C175.101 25.2826 175.103 25.2848 175.108 25.2848C175.115 25.2961 175.124 25.3051 175.136 25.3119C175.139 25.3201 175.144 25.328 175.15 25.3356C175.147 25.3378 175.145 25.3401 175.143 25.3423C175.155 25.3425 175.166 25.3482 175.177 25.3592C175.189 25.3737 175.202 25.3872 175.216 25.3998C175.218 25.3976 175.221 25.3953 175.223 25.3931C175.226 25.4018 175.228 25.4109 175.226 25.4201C175.217 25.4224 175.217 25.4247 175.226 25.4269C175.226 25.4314 175.228 25.4337 175.233 25.4337C175.239 25.4389 175.246 25.4423 175.254 25.4438C175.255 25.451 175.255 25.4589 175.254 25.4675C175.258 25.483 175.268 25.4942 175.282 25.5014C175.282 25.5059 175.284 25.5081 175.289 25.5081C175.289 25.5104 175.289 25.5127 175.289 25.5149C175.28 25.5171 175.28 25.5194 175.289 25.5217C175.305 25.5308 175.314 25.5421 175.317 25.5555C175.317 25.56 175.319 25.5623 175.324 25.5623C175.326 25.569 175.331 25.5736 175.338 25.5758C175.34 25.5826 175.345 25.5871 175.352 25.5893C175.356 25.5953 175.358 25.6021 175.358 25.6096C175.353 25.6115 175.348 25.6149 175.345 25.6198C175.354 25.6225 175.363 25.6259 175.372 25.6299C175.372 25.6345 175.375 25.6367 175.379 25.6367C175.368 25.6487 175.367 25.66 175.376 25.6705C175.386 25.6621 175.397 25.6621 175.407 25.6705C175.393 25.6797 175.393 25.6887 175.404 25.6976C175.41 25.6898 175.416 25.6909 175.421 25.701C175.419 25.7032 175.416 25.7055 175.414 25.7077C175.434 25.7124 175.45 25.7248 175.463 25.745C175.46 25.7496 175.458 25.7541 175.456 25.7585C175.447 25.7607 175.447 25.763 175.456 25.7653C175.461 25.7756 175.468 25.7846 175.477 25.7923C175.471 25.8048 175.476 25.8139 175.491 25.8194C175.5 25.8284 175.5 25.8375 175.491 25.8465C175.482 25.8487 175.482 25.851 175.491 25.8532C175.491 25.8578 175.493 25.86 175.498 25.86C175.5 25.869 175.503 25.869 175.505 25.86C175.51 25.8622 175.514 25.8645 175.519 25.8668C175.512 25.8776 175.515 25.8866 175.529 25.8938C175.531 25.8916 175.534 25.8893 175.536 25.8871C175.541 25.898 175.54 25.9081 175.533 25.9175C175.541 25.9269 175.55 25.9347 175.56 25.9412C175.563 25.9539 175.57 25.9641 175.581 25.9717C175.574 25.983 175.574 25.9932 175.581 26.0021C175.591 26.0213 175.605 26.0304 175.623 26.0292C175.618 26.04 175.611 26.0502 175.602 26.0596C175.611 26.0659 175.62 26.0692 175.63 26.0698C175.632 26.0743 175.635 26.0788 175.637 26.0833C175.628 26.0856 175.628 26.0879 175.637 26.0901C175.638 26.0985 175.642 26.1042 175.651 26.107C175.646 26.1092 175.642 26.1115 175.637 26.1138C175.65 26.1321 175.666 26.1468 175.686 26.1578C175.683 26.1726 175.688 26.1839 175.7 26.1916C175.7 26.1938 175.7 26.1961 175.7 26.1984C175.696 26.1988 175.694 26.201 175.693 26.2051C175.716 26.2149 175.719 26.2273 175.7 26.2423C175.708 26.2471 175.715 26.2527 175.721 26.2593C175.722 26.2721 175.729 26.2812 175.742 26.2863C175.742 26.298 175.745 26.3092 175.749 26.3202C175.739 26.3224 175.739 26.3247 175.749 26.3269C175.742 26.3392 175.746 26.3483 175.762 26.354C175.753 26.3698 175.758 26.3811 175.776 26.3878C175.776 26.3924 175.778 26.3946 175.783 26.3946C175.785 26.4036 175.788 26.4036 175.79 26.3946C175.8 26.414 175.807 26.432 175.811 26.4487C175.808 26.4491 175.805 26.4514 175.804 26.4555C175.822 26.4652 175.822 26.4754 175.804 26.486C175.808 26.4908 175.813 26.4942 175.818 26.4961C175.827 26.5018 175.836 26.5063 175.846 26.5096C175.847 26.5138 175.849 26.5172 175.853 26.5198C175.827 26.5291 175.827 26.5393 175.853 26.5502C175.842 26.5617 175.844 26.5685 175.86 26.5705C175.86 26.5808 175.855 26.5887 175.846 26.5942C175.881 26.603 175.895 26.6233 175.888 26.6551C175.905 26.6641 175.91 26.6764 175.902 26.6924C175.905 26.7105 175.914 26.724 175.93 26.733C175.93 26.7352 175.93 26.7375 175.93 26.7397C175.926 26.7401 175.923 26.7424 175.923 26.7465C175.928 26.7514 175.933 26.757 175.937 26.7634C175.928 26.7719 175.928 26.7798 175.937 26.7871C175.928 26.7893 175.928 26.7916 175.937 26.7939C175.919 26.8141 175.924 26.8219 175.951 26.8175C175.966 26.8256 175.97 26.8357 175.964 26.848C175.955 26.8502 175.955 26.8525 175.964 26.8548C175.974 26.8635 175.971 26.8703 175.957 26.8751C175.962 26.8876 175.969 26.8921 175.978 26.8886C175.975 26.8952 175.971 26.9008 175.964 26.9055C175.968 26.9168 175.977 26.927 175.992 26.936C175.992 26.9444 175.987 26.95 175.978 26.9529C175.985 26.9561 175.992 26.9573 175.999 26.9563C176 26.9672 175.996 26.9751 175.985 26.98C175.992 26.9834 175.999 26.9868 176.006 26.9901C176.003 26.9966 175.999 27.0022 175.992 27.007C176.001 27.0116 176.011 27.016 176.02 27.0206C176.013 27.0284 176.015 27.034 176.027 27.0375C176.024 27.044 176.019 27.0496 176.013 27.0544C176.037 27.0559 176.04 27.0626 176.02 27.0747C176.021 27.088 176.022 27.1027 176.024 27.1187C176.031 27.1244 176.039 27.1266 176.048 27.1254C176.049 27.1382 176.045 27.1484 176.034 27.1559C176.038 27.1608 176.042 27.1641 176.048 27.166C176.052 27.1793 176.052 27.1939 176.048 27.21C176.056 27.2187 176.065 27.221 176.076 27.2168C176.07 27.2353 176.068 27.2544 176.069 27.2743C176.06 27.2766 176.06 27.2789 176.069 27.2811C176.071 27.2972 176.078 27.313 176.09 27.3285C176.093 27.3458 176.097 27.3627 176.104 27.3792C176.075 27.4053 176.08 27.4177 176.118 27.4164C176.112 27.427 176.11 27.4384 176.111 27.4503C176.094 27.4574 176.094 27.4665 176.111 27.4773C176.109 27.4813 176.107 27.4847 176.104 27.4875C176.119 27.4905 176.123 27.4972 176.118 27.5078C176.125 27.5235 176.132 27.5394 176.139 27.5551C176.125 27.5626 176.12 27.5716 176.125 27.5822C176.133 27.5947 176.142 27.6004 176.153 27.5991C176.147 27.6204 176.145 27.6407 176.146 27.66C176.134 27.6634 176.131 27.6702 176.135 27.6803C176.145 27.6732 176.155 27.6721 176.166 27.677C176.148 27.6815 176.148 27.686 176.166 27.6905C176.148 27.6995 176.148 27.7086 176.166 27.7176C176.162 27.7295 176.16 27.7419 176.159 27.7548C176.156 27.7552 176.153 27.7574 176.153 27.7615C176.162 27.7718 176.171 27.7764 176.18 27.7751C176.169 27.7916 176.165 27.8097 176.166 27.8292C176.157 27.8314 176.157 27.8337 176.166 27.836C176.166 27.8402 176.164 27.8436 176.159 27.8461C176.17 27.8481 176.18 27.8526 176.187 27.8597C176.181 27.8726 176.178 27.8872 176.18 27.9037C176.183 27.9106 176.187 27.9151 176.194 27.9172C176.189 27.9233 176.182 27.9256 176.173 27.924C176.173 27.9307 176.173 27.9375 176.173 27.9443C176.182 27.9426 176.189 27.9449 176.194 27.951C176.185 27.9533 176.185 27.9556 176.194 27.9578C176.183 27.9708 176.185 27.9809 176.201 27.9882C176.182 27.9928 176.182 27.9972 176.201 28.0018C176.201 28.0125 176.199 28.0238 176.194 28.0356C176.21 28.0567 176.208 28.0725 176.187 28.083C176.191 28.0879 176.196 28.0912 176.201 28.0931C176.194 28.1275 176.194 28.159 176.201 28.1879C176.192 28.1901 176.192 28.1924 176.201 28.1946C176.205 30.2134 176.21 32.2436 176.219 34.285C176.237 35.2439 176.33 36.1957 176.497 37.1407C177.037 37.1992 177.578 37.2533 178.12 37.3031C178.368 37.265 178.615 37.2221 178.862 37.1745C178.897 36.9744 178.928 36.7736 178.956 36.5722C179.014 36.1298 179.074 35.6877 179.137 35.2459C179.169 35.0032 179.19 34.7595 179.2 34.5151C179.205 29.7759 179.205 25.0367 179.2 20.2975C179.186 20.0008 179.158 19.7052 179.116 19.411C179.069 19.0638 179.022 18.7164 178.977 18.3689C178.943 18.1298 178.905 17.8919 178.862 17.655C178.017 17.4693 177.172 17.2832 176.327 17.0967C176.43 16.3619 176.53 15.6265 176.626 14.8906C177.887 14.942 179.148 14.995 180.408 15.0497C181.358 15.0519 182.308 15.0542 183.257 15.0564C183.488 15.2642 183.72 15.4706 183.954 15.6756C183.892 16.2524 183.835 16.8299 183.783 17.408C183.738 18.114 183.694 18.82 183.651 19.5261C183.639 19.9139 183.629 20.302 183.623 20.69C183.618 25.1314 183.618 29.5729 183.623 34.0143C183.636 34.8108 183.689 35.6049 183.783 36.3963C183.818 36.6427 183.857 36.8886 183.898 37.1339C184.649 37.2079 185.402 37.2778 186.155 37.3437C186.09 38.0907 186.023 38.8373 185.953 39.5836C184.167 39.5892 182.381 39.5926 180.596 39.5937C179.329 39.6479 178.061 39.7009 176.793 39.7527C176.792 39.6985 176.789 39.6444 176.786 39.5903C175.333 39.5903 173.88 39.5903 172.426 39.5903C172.33 38.819 172.233 38.0475 172.137 37.276C171.845 37.7831 171.487 38.2421 171.061 38.6531C170.394 39.2547 169.609 39.6382 168.707 39.8035C167.881 39.9475 167.055 39.952 166.227 39.817C165.494 39.6984 164.825 39.4323 164.221 39.0185C163.95 38.8267 163.709 38.6023 163.5 38.3452C163.459 38.76 163.421 39.175 163.385 39.5903C161.412 39.5903 159.438 39.5903 157.465 39.5903C157.372 38.8207 157.276 38.0515 157.176 37.2828C156.866 37.8122 156.486 38.2892 156.037 38.714C155.461 39.2126 154.813 39.5521 154.09 39.7324C154.074 39.7392 154.058 39.746 154.042 39.7527C154.028 39.7527 154.014 39.7527 154 39.7527C153.995 39.7573 153.991 39.7617 153.986 39.7663C153.973 39.768 153.959 39.768 153.944 39.7663C153.907 39.7792 153.87 39.7904 153.833 39.8001C153.83 39.7979 153.828 39.7956 153.826 39.7933C153.79 39.8073 153.753 39.8164 153.714 39.8204C153.704 39.8168 153.693 39.8145 153.683 39.8137C153.592 39.8456 153.501 39.8603 153.411 39.8576C153.39 39.8587 153.37 39.8643 153.352 39.8746C153.337 39.8695 153.32 39.8695 153.303 39.8746C153.291 39.8758 153.282 39.8802 153.275 39.8881C153.258 39.8793 153.242 39.8816 153.227 39.8949C153.143 39.8949 153.059 39.8949 152.976 39.8949C152.924 39.9045 152.873 39.9112 152.823 39.9152C152.583 39.918 152.338 39.9146 152.088 39.905C151.36 39.8793 150.663 39.7236 149.998 39.4381C148.882 38.9239 148.147 38.0904 147.794 36.9377C147.627 36.3438 147.556 35.7404 147.581 35.1275C147.602 34.5193 147.735 33.9362 147.982 33.3782C148.145 33.0256 148.357 32.703 148.616 32.4105C148.697 32.3225 148.778 32.2346 148.859 32.1466C148.892 32.1134 148.926 32.0819 148.96 32.0519ZM156.768 32.1872C156.777 32.1872 156.787 32.1872 156.796 32.1872C156.798 32.9519 156.796 33.7165 156.793 34.4812C156.695 34.9134 156.516 35.3081 156.256 35.6655C155.508 36.6078 154.539 36.9225 153.348 36.6095C152.938 36.4635 152.644 36.1962 152.467 35.8076C152.339 35.4974 152.272 35.1748 152.265 34.8399C152.24 34.4379 152.302 34.05 152.453 33.6759C152.623 33.2991 152.901 33.025 153.286 32.8537C153.495 32.7633 153.713 32.7001 153.941 32.6643C154.885 32.5088 155.827 32.3497 156.768 32.1872ZM171.723 32.1872C171.735 32.1872 171.746 32.1872 171.757 32.1872C171.759 32.9496 171.757 33.712 171.754 34.4745C171.581 35.283 171.142 35.9158 170.441 36.3726C169.952 36.6583 169.423 36.7734 168.853 36.7177C168.507 36.6974 168.191 36.5937 167.906 36.4064C167.702 36.2558 167.548 36.0675 167.443 35.8414C167.307 35.5351 167.234 35.2148 167.227 34.8805C167.206 34.5622 167.236 34.2486 167.317 33.9399C167.495 33.3317 167.895 32.9358 168.519 32.7522C168.631 32.7199 168.745 32.6928 168.86 32.671C169.816 32.514 170.77 32.3527 171.723 32.1872Z" fill="#243974"/>
<path opacity="0.993" fill-rule="evenodd" clip-rule="evenodd" d="M228.232 17.8145C228.232 17.9431 228.232 18.0717 228.232 18.2002C228.141 19.1617 227.688 19.9139 226.874 20.457C226.089 20.9322 225.251 21.0496 224.359 20.8089C223.575 20.5675 222.981 20.0995 222.58 19.4048C222.195 18.6889 222.116 17.9422 222.343 17.1649C222.632 16.2952 223.206 15.676 224.067 15.3073C224.827 15.0141 225.588 15.0096 226.351 15.2938C227.066 15.5867 227.597 16.0705 227.943 16.7453C228.107 17.0852 228.203 17.4416 228.232 17.8145ZM225.146 15.4934C225.937 15.488 226.602 15.7632 227.142 16.319C227.748 17.0056 227.941 17.7906 227.72 18.6739C227.49 19.4251 227.01 19.9676 226.282 20.3014C225.559 20.6001 224.839 20.5933 224.122 20.2811C223.392 19.9275 222.922 19.3669 222.712 18.5995C222.524 17.7479 222.719 16.9922 223.297 16.3325C223.796 15.8111 224.412 15.5314 225.146 15.4934Z" fill="#243974"/>
<path opacity="0.999" fill-rule="evenodd" clip-rule="evenodd" d="M199.152 16.0885C199.522 16.0729 199.879 16.1282 200.225 16.2543C200.468 16.3549 200.68 16.4981 200.862 16.684C201.154 16.9816 201.345 17.3334 201.433 17.7397C201.548 18.2563 201.538 18.7706 201.405 19.2825C201.276 19.7165 201.042 20.0876 200.705 20.3957C200.417 20.6374 200.083 20.784 199.702 20.8356C198.389 20.9945 197.549 20.4645 197.181 19.2453C197.181 19.2296 197.181 19.2137 197.181 19.198C197.159 19.1203 197.14 19.0436 197.125 18.9679C197.132 18.9519 197.13 18.9338 197.118 18.9137C197.124 18.902 197.123 18.8897 197.115 18.8765C197.071 18.4787 197.096 18.084 197.191 17.6923C197.289 17.3255 197.463 16.9985 197.714 16.7111C197.989 16.4099 198.331 16.2193 198.741 16.1393C198.878 16.1139 199.015 16.097 199.152 16.0885Z" fill="#243974"/>
<path opacity="0.995" fill-rule="evenodd" clip-rule="evenodd" d="M224.053 16.3461C224.533 16.345 225.014 16.3461 225.495 16.3495C225.8 16.3677 226.064 16.477 226.285 16.6777C226.538 16.9683 226.61 17.2976 226.501 17.6657C226.381 18.0023 226.143 18.2121 225.787 18.295C225.803 18.3348 225.823 18.3732 225.846 18.4101C226.096 18.815 226.343 19.221 226.588 19.6282C226.323 19.6372 226.059 19.6372 225.794 19.6282C225.549 19.2064 225.304 18.7845 225.059 18.3627C224.952 18.356 224.844 18.3538 224.735 18.3559C224.735 18.7823 224.735 19.2086 224.735 19.6349C224.508 19.6349 224.28 19.6349 224.053 19.6349C224.053 18.5387 224.053 17.4424 224.053 16.3461ZM224.735 16.8943C224.735 17.2146 224.735 17.5349 224.735 17.8552C224.942 17.8563 225.148 17.8552 225.355 17.8518C225.678 17.8322 225.841 17.6687 225.843 17.3612C225.833 17.0734 225.68 16.9188 225.383 16.8976C225.167 16.8943 224.951 16.8931 224.735 16.8943Z" fill="#243974"/>
<path opacity="0.999" fill-rule="evenodd" clip-rule="evenodd" d="M-0.00390625 37.7901C-0.00390625 37.7608 -0.00390625 37.7314 -0.00390625 37.7021C0.57185 37.5864 1.14764 37.4702 1.72346 37.3536C2.28394 36.4122 2.74945 35.4276 3.11998 34.3998C5.18262 28.5029 7.24665 22.6066 9.31203 16.7107C10.3593 16.5843 11.4075 16.4658 12.4568 16.3555C12.4612 16.3605 12.4647 16.3662 12.4673 16.3724C14.73 22.6946 16.9914 29.0173 19.2514 35.3404C19.481 35.9601 19.7538 36.5612 20.0698 37.1438C20.7496 37.2562 21.4299 37.3656 22.1106 37.472C22.0562 38.1782 22.0005 38.8842 21.9434 39.5901C20.8313 39.589 19.7192 39.5901 18.6071 39.5935C16.6777 39.6438 14.7483 39.6968 12.819 39.7525C12.7613 39.0689 12.7079 38.3854 12.6588 37.7021C13.4013 37.5398 14.1443 37.3797 14.8877 37.2217C14.834 36.8829 14.7771 36.5445 14.717 36.2066C14.6731 35.9885 14.6219 35.7719 14.5638 35.557C14.3153 34.7843 14.0704 34.0106 13.829 33.2359C11.6233 33.2279 9.4177 33.2269 7.21203 33.2325C6.92255 34.1303 6.63581 35.0293 6.35183 35.9291C6.23263 36.3536 6.1479 36.7845 6.0976 37.2217C6.81484 37.3066 7.53229 37.3901 8.24984 37.472C8.19412 38.178 8.1384 38.8841 8.08268 39.5901C6.89163 39.589 5.70058 39.5901 4.50954 39.5935C3.06053 39.6419 1.61177 39.6938 0.163258 39.7491C0.107666 39.0954 0.0519449 38.4424 -0.00390625 37.7901ZM10.5553 22.7605C10.5667 22.7764 10.5748 22.7944 10.5797 22.8146C11.4099 25.4815 12.2423 28.1477 13.0767 30.8133C11.3795 30.82 9.68237 30.8223 7.98517 30.82C8.84293 28.1338 9.69965 25.4473 10.5553 22.7605Z" fill="#243974"/>
<path opacity="0.999" fill-rule="evenodd" clip-rule="evenodd" d="M79.6148 16.3535C79.6378 16.3535 79.6615 16.3535 79.6845 16.3535C81.9544 22.7083 84.2258 29.0626 86.4999 35.4163C86.7221 36.0099 86.9861 36.5862 87.2905 37.1453C87.9703 37.2576 88.6508 37.367 89.3313 37.4735C89.2769 38.1796 89.2212 38.8857 89.1641 39.5915C88.0518 39.5904 86.9401 39.5915 85.8278 39.5949C83.8984 39.6452 81.9691 39.6982 80.0397 39.754C79.9826 39.0701 79.929 38.3867 79.8795 37.7035C80.622 37.5413 81.3652 37.3811 82.1084 37.2231C82.0568 36.8956 82.0025 36.5685 81.9447 36.2419C81.8583 35.79 81.7357 35.3478 81.5755 34.9155C81.4021 34.3543 81.2266 33.7938 81.0497 33.2339C78.8438 33.2294 76.6386 33.2294 74.4327 33.2339C74.1395 34.1404 73.8504 35.0483 73.5656 35.9576C73.4513 36.3737 73.3691 36.7955 73.3183 37.2231C74.0357 37.3071 74.7531 37.3906 75.4705 37.4735C75.4148 38.1795 75.3591 38.8855 75.3034 39.5915C74.1123 39.5904 72.9213 39.5915 71.7302 39.5949C70.2815 39.6433 68.8324 39.6952 67.384 39.7506C67.3262 39.0823 67.2704 38.4135 67.2168 37.7441C67.2191 37.7306 67.2215 37.7171 67.2238 37.7035C67.7997 37.5871 68.3755 37.4698 68.9511 37.3517C69.5025 36.4156 69.9632 35.4389 70.3337 34.4215C72.3989 28.5179 74.4648 22.6148 76.5327 16.7122C77.5608 16.5917 78.5882 16.4721 79.6148 16.3535ZM77.776 22.7619C77.8199 22.8818 77.8603 23.0036 77.8979 23.1273C78.6954 25.6904 79.4957 28.2529 80.2974 30.8147C78.6 30.8215 76.9033 30.8237 75.2059 30.8215C76.064 28.1352 76.9207 25.4487 77.776 22.7619Z" fill="#2C67B1"/>
<path opacity="0.999" fill-rule="evenodd" clip-rule="evenodd" d="M145.102 20.5558C145.102 20.56 145.104 20.5634 145.109 20.566C145.087 20.5729 145.084 20.5807 145.102 20.5897C145.092 20.6138 145.097 20.616 145.116 20.5964C145.127 20.6094 145.13 20.623 145.123 20.637C145.13 20.6512 145.137 20.6659 145.143 20.681C145.14 20.6848 145.137 20.6893 145.137 20.6946C145.147 20.7138 145.159 20.7319 145.171 20.7487C145.179 20.7661 145.179 20.7841 145.171 20.8028C145.188 20.8153 145.192 20.8299 145.185 20.8468C145.195 20.8714 145.201 20.8962 145.203 20.9212C145.215 20.9386 145.228 20.9544 145.241 20.9686C145.238 20.9769 145.233 20.9848 145.227 20.9923C145.24 21.0056 145.243 21.0203 145.234 21.0363C145.24 21.0484 145.249 21.0552 145.262 21.0566C145.256 21.0653 145.249 21.0732 145.241 21.0803C145.248 21.0859 145.255 21.0916 145.262 21.0972C145.253 21.1066 145.255 21.1134 145.269 21.1175C145.275 21.1119 145.277 21.1052 145.276 21.0972C145.283 21.1077 145.288 21.1201 145.29 21.1344C145.288 21.145 145.283 21.153 145.276 21.1581C145.278 21.1626 145.281 21.1671 145.283 21.1716C145.285 21.1671 145.288 21.1626 145.29 21.1581C145.292 21.1615 145.295 21.1649 145.297 21.1682C145.291 21.1793 145.284 21.1894 145.276 21.1987C145.278 21.2068 145.281 21.2068 145.286 21.1987C145.288 21.2071 145.291 21.2139 145.297 21.219C145.306 21.231 145.304 21.2411 145.29 21.2494C145.298 21.2574 145.306 21.2652 145.314 21.2731C145.316 21.2709 145.319 21.2686 145.321 21.2664C145.319 21.2767 145.32 21.2857 145.325 21.2934C145.324 21.3019 145.32 21.3075 145.311 21.3104C145.321 21.3123 145.331 21.3168 145.339 21.3239C145.327 21.3313 145.318 21.3403 145.311 21.351C145.315 21.3541 145.32 21.3552 145.325 21.3543C145.323 21.3631 145.325 21.3698 145.332 21.3746C145.332 21.3796 145.332 21.3842 145.328 21.3882C145.323 21.3801 145.32 21.3801 145.318 21.3882C145.322 21.3928 145.327 21.3973 145.332 21.4017C145.322 21.4039 145.322 21.4062 145.332 21.4085C145.334 21.4152 145.339 21.4198 145.345 21.422C145.354 21.4322 145.354 21.4424 145.345 21.4525C145.351 21.4627 145.358 21.4717 145.366 21.4795C145.361 21.4818 145.357 21.4841 145.352 21.4863C145.363 21.5004 145.366 21.5151 145.359 21.5303C145.364 21.5391 145.371 21.5447 145.38 21.5472C145.364 21.555 145.366 21.5618 145.387 21.5675C145.38 21.5727 145.38 21.5783 145.387 21.5844C145.384 21.5848 145.381 21.5871 145.38 21.5912C145.385 21.6088 145.389 21.6269 145.391 21.6453C145.396 21.6372 145.399 21.6372 145.401 21.6453C145.388 21.6559 145.386 21.6672 145.394 21.6792C145.397 21.6888 145.404 21.6944 145.415 21.6961C145.412 21.7154 145.41 21.7345 145.408 21.7536C145.399 21.7558 145.399 21.7581 145.408 21.7604C145.423 21.7674 145.426 21.7775 145.415 21.7908C145.416 21.7996 145.421 21.8052 145.429 21.8077C145.428 21.8165 145.43 21.8232 145.436 21.828C145.436 21.8383 145.431 21.8462 145.422 21.8517C145.431 21.8539 145.441 21.8562 145.45 21.8585C145.444 21.8633 145.44 21.8689 145.436 21.8754C145.445 21.8912 145.445 21.907 145.436 21.9228C145.442 21.9283 145.449 21.9339 145.457 21.9397C145.44 21.9463 145.443 21.9508 145.464 21.9532C145.459 21.9555 145.455 21.9578 145.45 21.96C145.451 21.9998 145.46 22.0393 145.478 22.0784C145.474 22.085 145.47 22.0907 145.464 22.0953C145.469 22.0976 145.473 22.0999 145.478 22.1021C145.475 22.1171 145.473 22.1318 145.471 22.1461C145.462 22.1483 145.462 22.1506 145.471 22.1528C145.479 22.1628 145.486 22.1741 145.492 22.1867C145.477 22.1947 145.477 22.2048 145.492 22.2171C145.483 22.2217 145.483 22.2261 145.492 22.2307C145.477 22.233 145.474 22.2387 145.485 22.2476C145.481 22.248 145.479 22.2502 145.478 22.2544C145.488 22.2594 145.497 22.265 145.506 22.2713C145.487 22.2758 145.487 22.2803 145.506 22.2848C145.504 22.3088 145.501 22.3324 145.499 22.3559C145.503 22.3686 145.508 22.381 145.513 22.3931C145.513 22.8578 145.513 23.3202 145.513 23.7803C145.507 23.7877 145.502 23.7955 145.499 23.804C145.506 23.8239 145.506 23.8442 145.499 23.8649C145.49 23.8671 145.49 23.8694 145.499 23.8717C145.497 23.9017 145.497 23.9299 145.499 23.9563C145.494 23.9653 145.49 23.9743 145.485 23.9833C145.495 23.9966 145.492 24.0101 145.478 24.0239C145.482 24.0334 145.484 24.0424 145.485 24.051C145.48 24.0532 145.476 24.0555 145.471 24.0578C145.473 24.0781 145.476 24.0984 145.478 24.1187C145.471 24.1344 145.464 24.1503 145.457 24.166C145.476 24.1706 145.476 24.175 145.457 24.1796C145.464 24.1845 145.465 24.1901 145.46 24.1965C145.456 24.1884 145.452 24.1884 145.45 24.1965C145.453 24.205 145.458 24.2128 145.464 24.2202C145.459 24.2224 145.455 24.2247 145.45 24.2269C145.453 24.2504 145.453 24.2753 145.45 24.3014C145.442 24.3064 145.438 24.3132 145.436 24.3217C145.441 24.3313 145.443 24.3404 145.443 24.3488C145.437 24.3752 145.428 24.4023 145.415 24.43C145.418 24.4511 145.418 24.4714 145.415 24.4909C145.411 24.5037 145.404 24.515 145.394 24.5247C145.398 24.5307 145.4 24.5375 145.401 24.545C145.398 24.5696 145.389 24.5945 145.373 24.6194C145.379 24.6432 145.374 24.6657 145.359 24.6871C145.362 24.6981 145.362 24.7105 145.359 24.7243C145.35 24.7266 145.35 24.7289 145.359 24.7311C145.359 24.7414 145.355 24.7492 145.345 24.7548C145.349 24.7636 145.349 24.7737 145.345 24.7852C145.336 24.7875 145.336 24.7898 145.345 24.792C145.342 24.7985 145.338 24.8041 145.332 24.8089C145.34 24.819 145.34 24.8291 145.332 24.8394C145.322 24.8416 145.322 24.8439 145.332 24.8461C145.327 24.855 145.322 24.864 145.318 24.8732C145.318 24.8773 145.321 24.8796 145.325 24.88C145.317 24.9171 145.305 24.9509 145.29 24.9815C145.281 24.9837 145.281 24.986 145.29 24.9882C145.288 25.005 145.283 25.0207 145.276 25.0356C145.267 25.0378 145.267 25.0401 145.276 25.0424C145.274 25.0514 145.271 25.0604 145.269 25.0694C145.25 25.0717 145.25 25.074 145.269 25.0762C145.249 25.1075 145.24 25.1402 145.241 25.1743C145.233 25.1864 145.226 25.1988 145.22 25.2116C145.215 25.2341 145.206 25.2555 145.192 25.2758C145.192 25.2916 145.192 25.3074 145.192 25.3232C145.18 25.3611 145.161 25.3983 145.137 25.4349C145.141 25.4371 145.146 25.4394 145.15 25.4416C145.14 25.4552 145.128 25.4676 145.116 25.4789C145.12 25.4834 145.125 25.4879 145.13 25.4924C145.112 25.513 145.105 25.5356 145.109 25.5601C145.091 25.5649 145.084 25.574 145.088 25.5871C145.074 25.6018 145.07 25.6176 145.074 25.6345C145.064 25.6424 145.059 25.6526 145.056 25.6649C145.052 25.6568 145.048 25.6568 145.046 25.6649C145.048 25.6695 145.051 25.6739 145.053 25.6785C145.042 25.6899 145.033 25.7024 145.025 25.7157C145.027 25.7179 145.03 25.7202 145.032 25.7225C145.019 25.7348 145.014 25.7483 145.018 25.7631C145.013 25.7766 145.004 25.7856 144.99 25.7901C144.992 25.7969 144.995 25.8037 144.997 25.8104C144.983 25.815 144.974 25.824 144.969 25.8375C144.986 25.843 144.985 25.8486 144.966 25.8544C144.956 25.8694 144.953 25.884 144.955 25.8984C144.939 25.9174 144.928 25.9388 144.921 25.9627C144.914 25.9649 144.909 25.9695 144.907 25.9762C144.898 25.9809 144.898 25.9865 144.907 25.9931C144.898 26.0021 144.888 26.0112 144.879 26.0202C144.887 26.028 144.887 26.0358 144.879 26.0439C144.87 26.0618 144.858 26.0787 144.844 26.0947C144.849 26.0969 144.853 26.0992 144.858 26.1014C144.839 26.1217 144.821 26.142 144.802 26.1623C144.804 26.1646 144.807 26.1669 144.809 26.1691C144.799 26.1974 144.783 26.2222 144.76 26.2435C144.758 26.2539 144.758 26.2651 144.76 26.2774C144.753 26.2796 144.746 26.2819 144.74 26.2841C144.742 26.2864 144.744 26.2887 144.746 26.2909C144.73 26.3146 144.714 26.3383 144.698 26.362C144.699 26.3659 144.701 26.3693 144.705 26.3721C144.678 26.3746 144.674 26.3836 144.691 26.3992C144.681 26.4023 144.673 26.408 144.666 26.4161C144.657 26.4414 144.642 26.4628 144.621 26.4804C144.625 26.4831 144.627 26.4865 144.628 26.4905C144.433 26.7628 144.221 27.038 143.991 27.3161C143.893 27.4353 143.785 27.5515 143.667 27.6646C143.463 27.8768 143.238 28.0809 142.991 28.277C142.968 28.3004 142.942 28.3207 142.915 28.3379C142.379 28.754 141.801 29.1014 141.18 29.3801C141.948 30.8194 142.759 32.2315 143.615 33.6162C143.92 34.0955 144.225 34.576 144.527 35.0576C144.582 35.1535 144.636 35.2505 144.687 35.3486C144.925 35.6833 145.157 36.0216 145.384 36.3636C145.603 36.6711 145.825 36.9767 146.049 37.2806C146.671 37.3476 147.293 37.4119 147.916 37.4734C147.852 38.1796 147.787 38.8857 147.721 39.5915C145.724 39.5915 143.727 39.5915 141.731 39.5915C141.588 39.236 141.436 38.8841 141.274 38.5359C140.858 37.6516 140.443 36.7674 140.028 35.8832C139.04 34.0358 138.052 32.1884 137.064 30.341C136.263 30.3491 135.462 30.331 134.661 30.2868C134.659 31.568 134.661 32.8493 134.664 34.1305C134.673 34.9072 134.727 35.6808 134.825 36.4516C134.858 36.7272 134.894 37.0023 134.933 37.2772C135.699 37.3426 136.465 37.408 137.231 37.4734C137.154 38.1789 137.076 38.8838 136.994 39.5881C135.413 39.5904 133.832 39.5927 132.251 39.5949C130.746 39.6448 129.242 39.6978 127.737 39.7539C127.683 39.0703 127.627 38.3869 127.57 37.7035C128.36 37.5638 129.148 37.4195 129.935 37.2704C130.006 36.7021 130.076 36.1337 130.144 35.5651C130.174 35.3019 130.195 35.038 130.207 34.7734C130.212 30.359 130.212 25.9446 130.207 21.5303C130.199 21.3516 130.185 21.1735 130.165 20.9957C130.101 20.3722 130.014 19.7519 129.904 19.1347C129.139 19.0121 128.375 18.8858 127.612 18.7558C127.661 18.0183 127.714 17.2806 127.772 16.543C128.826 16.5955 129.88 16.644 130.934 16.6885C131.617 16.7087 132.3 16.711 132.982 16.6952C133.34 16.6881 133.698 16.6791 134.055 16.6682C134.939 16.6271 135.824 16.591 136.709 16.5599C137.145 16.5488 137.581 16.5443 138.018 16.5464C138.908 16.5518 139.781 16.6713 140.637 16.905C141.271 17.091 141.874 17.3436 142.448 17.6629C143.246 18.1138 143.907 18.7105 144.43 19.4528C144.641 19.7696 144.838 20.0719 145.022 20.3596C145.026 20.3705 145.026 20.3806 145.018 20.39C145.023 20.399 145.03 20.4058 145.039 20.4103C145.045 20.4252 145.045 20.4409 145.039 20.4577C145.058 20.4919 145.075 20.5269 145.091 20.5626C145.094 20.5588 145.098 20.5566 145.102 20.5558ZM139.78 20.1024C139.785 20.107 139.789 20.1114 139.794 20.116C139.803 20.1205 139.81 20.1273 139.815 20.1363C139.817 20.1363 139.82 20.1363 139.822 20.1363C139.821 20.1584 139.833 20.1685 139.857 20.1667C139.849 20.1768 139.849 20.187 139.857 20.1972C139.866 20.1955 139.873 20.1978 139.878 20.2039C139.869 20.2062 139.869 20.2085 139.878 20.2107C139.887 20.2137 139.894 20.2228 139.899 20.2378C139.901 20.2468 139.904 20.2468 139.906 20.2378C139.911 20.2528 139.918 20.2619 139.927 20.2648C139.95 20.2688 139.952 20.2768 139.934 20.2885C139.942 20.3027 139.947 20.3016 139.951 20.2851C139.956 20.2932 139.961 20.3 139.968 20.3054C139.959 20.3077 139.959 20.31 139.968 20.3122C139.97 20.3265 139.98 20.3378 140 20.346C139.996 20.3592 139.998 20.3728 140.007 20.3866C140.009 20.3799 140.012 20.3731 140.014 20.3663C140.018 20.377 140.023 20.386 140.031 20.3934C140.037 20.4095 140.046 20.4231 140.059 20.434C140.061 20.4386 140.064 20.443 140.066 20.4476C140.071 20.4521 140.075 20.4566 140.08 20.4611C140.09 20.4717 140.097 20.4841 140.101 20.4983C140.099 20.5005 140.096 20.5028 140.094 20.5051C140.104 20.507 140.114 20.5116 140.122 20.5186C140.119 20.5208 140.117 20.5231 140.115 20.5254C140.121 20.5302 140.125 20.5358 140.129 20.5423C140.141 20.5526 140.148 20.5662 140.149 20.5829C140.161 20.5815 140.168 20.5859 140.17 20.5964C140.186 20.5983 140.188 20.6051 140.177 20.6167C140.181 20.6271 140.186 20.6361 140.191 20.6438C140.191 20.646 140.191 20.6483 140.191 20.6506C140.208 20.648 140.213 20.6525 140.205 20.6641C140.208 20.671 140.212 20.6755 140.219 20.6776C140.221 20.6931 140.23 20.7009 140.247 20.7013C140.237 20.7061 140.232 20.714 140.233 20.725C140.242 20.7234 140.249 20.7257 140.254 20.7318C140.245 20.734 140.245 20.7363 140.254 20.7385C140.258 20.7429 140.263 20.7475 140.268 20.7521C140.262 20.7607 140.26 20.7697 140.264 20.7791C140.28 20.7848 140.29 20.7949 140.296 20.8096C140.296 20.8189 140.295 20.829 140.292 20.84C140.299 20.8324 140.304 20.8346 140.306 20.8468C140.309 20.8369 140.315 20.8335 140.324 20.8367C140.318 20.8412 140.316 20.8468 140.317 20.8536C140.319 20.8536 140.321 20.8536 140.324 20.8536C140.321 20.869 140.325 20.8803 140.338 20.8874C140.338 20.8896 140.338 20.8919 140.338 20.8942C140.343 20.8965 140.346 20.901 140.344 20.9077C140.349 20.9068 140.354 20.908 140.358 20.9111C140.351 20.9228 140.347 20.9353 140.348 20.9483C140.354 20.9405 140.36 20.9416 140.365 20.9517C140.358 20.9586 140.36 20.9631 140.372 20.9652C140.37 20.9675 140.367 20.9698 140.365 20.972C140.386 20.9744 140.389 20.979 140.372 20.9855C140.381 20.9945 140.381 21.0036 140.372 21.0126C140.379 21.0145 140.383 21.0179 140.386 21.0228C140.395 21.035 140.407 21.0452 140.421 21.0532C140.417 21.0558 140.415 21.0592 140.414 21.0634C140.42 21.0657 140.422 21.0702 140.421 21.0769C140.413 21.0841 140.415 21.0897 140.428 21.0938C140.426 21.096 140.423 21.0983 140.421 21.1006C140.43 21.1051 140.437 21.1119 140.442 21.1209C140.434 21.1261 140.434 21.1317 140.442 21.1378C140.433 21.14 140.433 21.1423 140.442 21.1446C140.446 21.1555 140.453 21.1645 140.463 21.1716C140.463 21.1739 140.463 21.1762 140.463 21.1784C140.454 21.1806 140.454 21.1829 140.463 21.1852C140.461 21.1944 140.463 21.2035 140.466 21.2122C140.478 21.2065 140.479 21.2099 140.47 21.2224C140.492 21.2243 140.495 21.23 140.477 21.2393C140.487 21.2511 140.494 21.2647 140.498 21.2799C140.489 21.2821 140.489 21.2844 140.498 21.2867C140.503 21.3053 140.512 21.3165 140.526 21.3205C140.516 21.3296 140.518 21.3353 140.533 21.3374C140.527 21.3395 140.522 21.3429 140.519 21.3476C140.523 21.3585 140.527 21.3698 140.529 21.3814C140.534 21.3643 140.539 21.3643 140.546 21.3814C140.547 21.3982 140.547 21.4151 140.546 21.4322C140.547 21.441 140.552 21.4466 140.56 21.4491C140.564 21.4556 140.568 21.4612 140.574 21.466C140.565 21.4795 140.565 21.4931 140.574 21.5066C140.592 21.5109 140.592 21.5165 140.574 21.5235C140.577 21.5281 140.579 21.5326 140.581 21.537C140.592 21.5411 140.599 21.549 140.602 21.5607C140.594 21.5818 140.597 21.5829 140.613 21.5641C140.616 21.5743 140.613 21.5821 140.602 21.5878C140.611 21.6013 140.618 21.6148 140.623 21.6284C140.621 21.6352 140.618 21.6419 140.616 21.6487C140.638 21.6526 140.64 21.6594 140.623 21.669C140.633 21.6715 140.64 21.6771 140.644 21.6859C140.64 21.7 140.638 21.7147 140.637 21.7299C140.668 21.7611 140.678 21.7938 140.665 21.828C140.668 21.8348 140.672 21.8416 140.675 21.8483C140.677 21.8461 140.68 21.8438 140.682 21.8416C140.684 21.8726 140.69 21.9019 140.7 21.9295C140.7 21.9318 140.7 21.9341 140.7 21.9363C140.708 21.9435 140.706 21.9492 140.693 21.9532C140.701 21.9561 140.708 21.9606 140.714 21.9668C140.712 21.9856 140.712 22.0048 140.714 22.0243C140.719 22.0325 140.725 22.0325 140.731 22.0243C140.732 22.0277 140.733 22.031 140.735 22.0344C140.727 22.0611 140.727 22.0892 140.735 22.119C140.725 22.1212 140.725 22.1235 140.735 22.1258C140.735 22.1303 140.735 22.1348 140.735 22.1393C140.756 22.1443 140.76 22.1555 140.748 22.1731C140.75 22.1908 140.757 22.2055 140.769 22.2171C140.765 22.2197 140.763 22.2231 140.762 22.2273C140.751 22.2307 140.749 22.2352 140.755 22.2408C140.762 22.2507 140.762 22.2598 140.755 22.2679C140.763 22.2687 140.768 22.2732 140.769 22.2814C140.773 22.3067 140.773 22.3303 140.769 22.3525C140.784 22.3655 140.791 22.3825 140.79 22.4032C140.788 22.4296 140.786 22.4544 140.783 22.4777C140.789 22.4837 140.796 22.4859 140.804 22.4844C140.798 22.5042 140.796 22.5234 140.797 22.542C140.803 22.5446 140.808 22.5491 140.811 22.5555C140.804 22.5698 140.803 22.5845 140.808 22.5995C140.814 22.6024 140.82 22.6046 140.825 22.6062C140.823 22.6392 140.823 22.6742 140.825 22.7111C140.82 22.7201 140.816 22.7292 140.811 22.7382C140.816 22.7404 140.82 22.7427 140.825 22.745C140.812 22.7524 140.807 22.7614 140.811 22.772C140.82 22.772 140.83 22.772 140.839 22.772C140.834 22.7888 140.834 22.8069 140.839 22.8262C140.822 22.845 140.822 22.8641 140.839 22.8837C140.838 22.8932 140.835 22.9033 140.832 22.9141C140.838 22.9214 140.843 22.9293 140.846 22.9378C140.831 22.9311 140.829 22.9355 140.839 22.9514C140.839 22.9696 140.844 22.9887 140.853 23.0089C140.844 23.0328 140.844 23.0565 140.853 23.0799C140.854 23.0889 140.852 23.0968 140.846 23.1036C140.864 23.113 140.864 23.1208 140.846 23.1273C140.86 23.1413 140.86 23.1537 140.846 23.1645C140.851 23.1668 140.855 23.1691 140.86 23.1713C140.855 23.2029 140.851 23.2344 140.846 23.266C140.878 23.8934 140.805 24.5104 140.627 25.1168C140.257 26.3196 139.471 27.1508 138.269 27.6105C137.686 27.815 137.085 27.9301 136.465 27.9556C136.202 27.963 135.938 27.9663 135.674 27.9657C135.336 27.9644 134.999 27.9622 134.661 27.959C134.659 26.0371 134.661 24.1153 134.664 22.1935C134.673 21.8073 134.692 21.4216 134.72 21.0363C134.765 20.4497 134.811 19.8632 134.859 19.2769C134.873 19.1617 134.887 19.0467 134.901 18.9317C135.47 18.8758 136.039 18.8522 136.611 18.8607C137.223 18.8739 137.817 18.9778 138.394 19.172C138.912 19.3551 139.359 19.6405 139.735 20.028C139.741 20.0411 139.744 20.0547 139.745 20.0686C139.753 20.0676 139.76 20.0687 139.766 20.072C139.764 20.0831 139.769 20.0933 139.78 20.1024ZM145.004 20.407C145.005 20.4033 145.007 20.401 145.011 20.4002C145.019 20.406 145.02 20.4128 145.015 20.4205C145.013 20.4143 145.009 20.4098 145.004 20.407Z" fill="#243974"/>
<path opacity="0.999" fill-rule="evenodd" clip-rule="evenodd" d="M58.7349 39.9967C57.985 39.9967 57.2351 39.9967 56.4852 39.9967C55.6721 39.9221 54.8827 39.7451 54.117 39.4654C53.1296 39.0924 52.2788 38.5273 51.5643 37.7703C50.8673 37.021 50.3518 36.1639 50.018 35.1988C49.6972 34.2424 49.5184 33.2611 49.4817 32.2552C49.4391 31.3549 49.4879 30.4593 49.6279 29.5686C49.8264 28.2743 50.307 27.0924 51.0697 26.0227C51.5906 25.3046 52.2325 24.7125 52.9956 24.2464C53.9406 23.6764 54.9668 23.3222 56.0742 23.1839C57.0991 23.0539 58.1207 23.0742 59.1389 23.2448C60.4772 23.4826 61.6183 24.0701 62.5623 25.0077C63.1121 25.5859 63.53 26.2468 63.816 26.9904C64.1122 27.7727 64.2863 28.5802 64.3384 29.413C64.3797 29.9791 64.3797 30.5453 64.3384 31.1115C64.1171 31.5268 63.8931 31.9408 63.6663 32.3533C60.6272 32.3567 57.588 32.3578 54.5488 32.3567C54.5771 32.8823 54.6433 33.4033 54.7474 33.9199C54.8815 34.5052 55.1044 35.0556 55.416 35.571C55.7724 36.0931 56.2471 36.4777 56.8404 36.7248C57.3794 36.9311 57.9389 37.0393 58.519 37.0496C59.3089 37.0759 60.0866 36.9947 60.8523 36.806C61.4713 36.6303 62.068 36.4002 62.6424 36.1158C62.7405 36.063 62.8368 36.0078 62.9315 35.95C63.307 36.5556 63.6808 37.1624 64.0528 37.7703C64.0619 37.7832 64.0666 37.7967 64.0668 37.8109C63.5457 38.2673 62.9711 38.6496 62.3429 38.9579C61.9982 39.1288 61.6476 39.2867 61.2911 39.4316C60.4625 39.7232 59.6104 39.9115 58.7349 39.9967ZM56.91 25.5423C57.788 25.4853 58.437 25.8282 58.8568 26.5708C59.0782 26.9935 59.2221 27.4401 59.2887 27.9107C59.3812 28.5328 59.409 29.1576 59.3722 29.7852C59.367 29.7895 59.3612 29.7928 59.3548 29.7953C57.7528 29.8814 56.1508 29.9683 54.5488 30.0559C54.5727 29.1138 54.7132 28.1867 54.9702 27.2746C55.1077 26.8364 55.3317 26.454 55.6424 26.1276C55.9854 25.7749 56.408 25.5798 56.91 25.5423Z" fill="#243974"/>
<path opacity="0.998" fill-rule="evenodd" clip-rule="evenodd" d="M102.928 38.2161C102.925 38.2071 102.923 38.2071 102.921 38.2161C102.915 38.2224 102.909 38.2292 102.903 38.2364C102.901 38.2342 102.898 38.2319 102.896 38.2297C102.896 38.2494 102.888 38.2562 102.872 38.25C102.865 38.2571 102.858 38.2638 102.851 38.2703C102.846 38.2748 102.842 38.2793 102.837 38.2838C102.835 38.2748 102.832 38.2748 102.83 38.2838C102.794 38.3157 102.757 38.3417 102.719 38.3616C102.705 38.3751 102.691 38.3886 102.677 38.4022C102.63 38.4254 102.591 38.4524 102.558 38.4834C102.545 38.4928 102.531 38.5007 102.517 38.5071C102.514 38.4981 102.512 38.4981 102.51 38.5071C102.499 38.5072 102.491 38.5117 102.485 38.5206C102.483 38.5311 102.478 38.5401 102.471 38.5477C102.464 38.5424 102.456 38.5436 102.447 38.5511C102.382 38.5992 102.315 38.6432 102.245 38.683C102.243 38.674 102.24 38.674 102.238 38.683C102.211 38.705 102.186 38.7253 102.165 38.7439C102.163 38.7394 102.16 38.7349 102.158 38.7304C102.135 38.7521 102.106 38.7713 102.071 38.7879C102.06 38.7973 102.049 38.8075 102.039 38.8184C102.03 38.8176 102.021 38.8153 102.012 38.8116C102.008 38.8253 102 38.8354 101.987 38.8421C101.973 38.8474 101.96 38.8553 101.949 38.8658C101.947 38.8612 101.944 38.8568 101.942 38.8522C101.936 38.8741 101.92 38.8876 101.897 38.8928C101.893 38.8914 101.889 38.8892 101.886 38.8861C101.874 38.8974 101.864 38.9087 101.855 38.9199C101.843 38.9241 101.833 38.9309 101.824 38.9402C101.821 38.9371 101.817 38.9348 101.813 38.9334C101.804 38.9508 101.792 38.9576 101.775 38.9537C101.773 38.9659 101.768 38.9681 101.761 38.9605C101.749 38.9718 101.738 38.983 101.726 38.9943C101.724 38.9921 101.721 38.9898 101.719 38.9876C101.701 38.9941 101.687 39.0054 101.677 39.0214C101.664 39.0174 101.653 39.0219 101.642 39.0349C101.64 39.0327 101.638 39.0304 101.635 39.0282C101.624 39.038 101.615 39.0493 101.608 39.062C101.601 39.0598 101.594 39.0575 101.587 39.0552C101.563 39.0728 101.539 39.0885 101.517 39.1026C101.506 39.0968 101.499 39.1014 101.496 39.1161C101.494 39.1116 101.491 39.1071 101.489 39.1026C101.477 39.1046 101.468 39.1137 101.461 39.1297C101.459 39.1274 101.456 39.1251 101.454 39.1229C101.447 39.1329 101.436 39.1385 101.423 39.1398C101.408 39.1462 101.398 39.1564 101.392 39.1703C101.387 39.1522 101.383 39.1522 101.378 39.1703C101.367 39.168 101.358 39.168 101.35 39.1703C101.302 39.1916 101.257 39.2164 101.214 39.2447C100.834 39.405 100.437 39.5494 100.023 39.6778C100.021 39.6688 100.018 39.6688 100.016 39.6778C99.9875 39.6896 99.9583 39.7009 99.929 39.7116C99.9269 39.7094 99.9241 39.7071 99.9221 39.7049C99.8726 39.7179 99.8259 39.7336 99.7828 39.7522C99.7465 39.7503 99.7117 39.7594 99.6783 39.7793C99.6762 39.7771 99.6734 39.7748 99.6713 39.7725C99.6379 39.7815 99.6065 39.7905 99.5773 39.7996C99.5613 39.7963 99.5466 39.8008 99.532 39.8131C99.5202 39.8131 99.509 39.8131 99.4972 39.8131C99.4937 39.8274 99.4853 39.8297 99.4728 39.8199C99.4505 39.8261 99.4282 39.8328 99.4066 39.8402C99.392 39.8378 99.3781 39.8424 99.3648 39.8537C99.3432 39.853 99.3224 39.853 99.3022 39.8537C99.2931 39.8631 99.2833 39.8653 99.2743 39.8605C99.2722 39.865 99.2694 39.8695 99.2673 39.874C99.2457 39.8801 99.2248 39.8801 99.2046 39.874C99.1552 39.8862 99.1036 39.8997 99.0514 39.9146C99.0472 39.9111 99.043 39.9088 99.0375 39.9079C98.9205 39.9295 98.8069 39.9498 98.6962 39.9688C98.6795 39.9621 98.6627 39.9644 98.6474 39.9756C98.6307 39.9688 98.6147 39.9711 98.5987 39.9823C98.582 39.9756 98.5652 39.9779 98.5499 39.9891C98.5436 39.9875 98.5381 39.9852 98.5325 39.9823C98.5081 39.9864 98.4851 39.9908 98.4628 39.9959C97.7197 39.9959 96.9772 39.9959 96.234 39.9959C95.4184 39.9261 94.6243 39.758 93.8519 39.4917C92.2137 38.9015 90.9892 37.856 90.1778 36.3552C90.0364 36.0823 89.9096 35.8172 89.7982 35.5601C89.8044 35.5444 89.7995 35.5308 89.7842 35.5195C89.7856 35.5021 89.7787 35.4863 89.7633 35.4721C89.7752 35.457 89.7703 35.4458 89.7494 35.4382C89.7501 35.4297 89.7522 35.4207 89.7564 35.4112C89.741 35.4082 89.7369 35.4014 89.7424 35.3909C89.7208 35.3445 89.702 35.2994 89.6867 35.2555C89.6902 35.2528 89.6923 35.2494 89.6937 35.2454C89.6818 35.2215 89.67 35.1978 89.6588 35.1743C89.6749 35.1665 89.6728 35.1597 89.6519 35.154C89.6519 35.1383 89.6519 35.1224 89.6519 35.1067C89.6275 35.0742 89.6164 35.0392 89.6171 35.0018C89.6087 34.9888 89.5996 34.9763 89.5892 34.9646C89.5885 34.9501 89.5885 34.9355 89.5892 34.9206C89.5836 34.902 89.5746 34.8828 89.5613 34.863C89.5599 34.8478 89.5599 34.832 89.5613 34.8157C89.5467 34.8135 89.5446 34.8078 89.5544 34.7988C89.5377 34.7655 89.5258 34.7328 89.5195 34.7006C89.5244 34.6984 89.5286 34.6961 89.5335 34.6939C89.5251 34.691 89.5182 34.6865 89.5126 34.6803C89.5105 34.6725 89.5105 34.6634 89.5126 34.6533C89.4952 34.649 89.4952 34.6434 89.5126 34.6364C89.5042 34.6139 89.4945 34.5891 89.4847 34.5619C89.4931 34.5524 89.4903 34.5445 89.4778 34.5382C89.4826 34.536 89.4868 34.5337 89.4917 34.5315C89.4708 34.5258 89.4687 34.519 89.4847 34.5112C89.4764 34.5083 89.4694 34.5038 89.4638 34.4976C89.4645 34.4746 89.4645 34.4521 89.4638 34.43C89.4534 34.4209 89.4464 34.4097 89.4429 34.3961C89.4429 34.3804 89.4429 34.3645 89.4429 34.3488C89.4381 34.3465 89.4339 34.3442 89.429 34.342C89.4311 34.3307 89.4339 34.3195 89.436 34.3082C89.4192 34.2993 89.4192 34.2925 89.436 34.2878C89.4276 34.285 89.4206 34.2805 89.4151 34.2743C89.406 34.2519 89.406 34.2294 89.4151 34.2066C89.4053 34.1969 89.3984 34.1856 89.3942 34.1728C89.3942 34.157 89.3942 34.1412 89.3942 34.1254C89.3775 34.1166 89.3775 34.1098 89.3942 34.1051C89.3795 34.103 89.3775 34.0973 89.3872 34.0882C89.3837 34.0816 89.3795 34.076 89.3733 34.0713C89.3782 34.0691 89.3823 34.0668 89.3872 34.0645C89.3775 34.0578 89.3705 34.0488 89.3663 34.0375C89.3684 34.0262 89.3712 34.0149 89.3733 34.0036C89.3684 34.0014 89.3642 33.9991 89.3593 33.9969C89.3586 33.9769 89.3586 33.9566 89.3593 33.936C89.3566 33.9295 89.3517 33.9251 89.3454 33.9224C89.3468 33.9061 89.3468 33.8904 89.3454 33.8751C89.3378 33.8701 89.3336 33.8633 89.3315 33.8548C89.3308 33.8401 89.3329 33.8265 89.3385 33.8142C89.328 33.7977 89.321 33.7796 89.3176 33.76C89.3266 33.7506 89.3245 33.7438 89.3106 33.7397C89.3148 33.7269 89.3169 33.7145 89.3176 33.7025C89.3043 33.6978 89.3022 33.691 89.3106 33.6822C89.3057 33.6709 89.3015 33.6597 89.2967 33.6484C89.2974 33.6266 89.2974 33.6052 89.2967 33.5841C89.2918 33.5818 89.2876 33.5795 89.2827 33.5773C89.2834 33.5465 89.2834 33.516 89.2827 33.486C89.2765 33.4477 89.2667 33.4105 89.2549 33.3743C89.2556 33.361 89.2584 33.3474 89.2618 33.3337C89.257 33.3247 89.2528 33.3156 89.2479 33.3066C89.2493 33.299 89.2514 33.2912 89.2549 33.2829C89.2514 33.2783 89.2465 33.2749 89.2409 33.2728C89.2437 33.2379 89.2437 33.2018 89.2409 33.1645C89.2382 33.1424 89.2312 33.1221 89.22 33.1036C89.2235 33.0899 89.2263 33.0763 89.227 33.063C89.2131 33.0571 89.2131 33.0481 89.227 33.0359C89.211 33.0336 89.2089 33.0268 89.22 33.0156C89.2159 32.9932 89.2117 32.9717 89.2061 32.9514C89.2131 32.933 89.211 32.9149 89.1991 32.8972C89.2019 32.8846 89.2047 32.8722 89.2061 32.86C89.2012 32.8365 89.1964 32.8128 89.1922 32.7889C89.1901 32.766 89.1922 32.7446 89.1991 32.7247C89.1929 32.72 89.1887 32.7144 89.1852 32.7077C89.1929 32.6823 89.1929 32.6541 89.1852 32.6232C89.1803 32.6186 89.1762 32.6142 89.1713 32.6096C89.1748 32.5653 89.1776 32.5225 89.1783 32.481C89.1734 32.4788 89.1692 32.4765 89.1643 32.4743C89.1643 32.4157 89.1643 32.3571 89.1643 32.2983C89.1615 32.2919 89.1567 32.2874 89.1504 32.2848C89.1567 32.2801 89.1608 32.2745 89.1643 32.2679C89.1553 32.2508 89.1553 32.2338 89.1643 32.2171C89.1581 32.2125 89.1539 32.2068 89.1504 32.2002C89.1518 31.8993 89.1518 31.5982 89.1504 31.2968C89.1643 30.3776 89.2883 29.4719 89.523 28.5798C89.8295 27.4789 90.3568 26.4886 91.1041 25.6091C91.9281 24.6829 92.9346 24.0118 94.1235 23.5959C94.9942 23.3014 95.8899 23.1389 96.8121 23.1087C97.852 23.0738 98.8849 23.1393 99.9116 23.3049C100.986 23.4742 102.054 23.6762 103.116 23.9106C103.118 23.9162 103.12 23.9219 103.123 23.9275C102.964 25.7736 102.808 27.6198 102.656 29.4663C101.743 29.4336 100.831 29.3998 99.9186 29.3648C99.9165 29.3129 99.9137 29.2611 99.9116 29.2092C99.9255 28.6634 99.9339 28.1175 99.936 27.5716C99.9067 27.1084 99.851 26.6482 99.7688 26.1911C99.6866 26.1432 99.6003 26.1026 99.5111 26.0693C99.4324 26.0225 99.3502 25.9831 99.2638 25.9509C99.2541 25.9343 99.2416 25.9287 99.2255 25.9339C99.1427 25.8946 99.0577 25.8585 98.9713 25.8257C98.9671 25.8271 98.9636 25.8293 98.9609 25.8324C98.9483 25.8246 98.9365 25.8156 98.926 25.8054C98.9107 25.8118 98.8947 25.8118 98.8773 25.8054C98.8717 25.7997 98.8654 25.7941 98.8599 25.7884C98.6565 25.7257 98.4454 25.6727 98.226 25.6294C98.2219 25.6308 98.2184 25.6331 98.2156 25.6362C98.1696 25.6264 98.1229 25.6174 98.0763 25.6091C96.5175 25.4154 95.426 26.0335 94.8026 27.4633C94.5881 27.9748 94.4439 28.5049 94.3708 29.0535C94.2197 30.1371 94.1709 31.2176 94.2245 32.295C94.2559 32.9783 94.3673 33.6528 94.5589 34.3183C94.7609 34.9667 95.098 35.5373 95.5688 36.0304C95.9986 36.4631 96.5175 36.7507 97.1255 36.8932C97.6535 37.0099 98.187 37.0482 98.7275 37.0082C99.486 36.969 100.222 36.8224 100.935 36.5683C101.397 36.4028 101.845 36.2077 102.28 35.983C102.666 36.5861 103.047 37.1929 103.422 37.8033C103.265 37.9449 103.111 38.0735 102.959 38.1891C102.953 38.2035 102.943 38.2126 102.928 38.2161Z" fill="#2C67B1"/>
<path opacity="0.999" fill-rule="evenodd" clip-rule="evenodd" d="M116.886 24.6084C116.893 24.6139 116.898 24.6207 116.903 24.6287C116.91 24.6287 116.917 24.6287 116.924 24.6287C116.933 24.644 116.943 24.6587 116.955 24.6727C116.993 24.6894 117.022 24.7154 117.042 24.7505C117.044 24.7483 117.047 24.746 117.049 24.7438C117.051 24.7505 117.054 24.7573 117.056 24.7641C117.058 24.7618 117.061 24.7595 117.063 24.7573C117.071 24.7742 117.083 24.7878 117.098 24.7979C117.1 24.7957 117.103 24.7934 117.105 24.7911C117.116 24.8057 117.126 24.8215 117.133 24.8385C117.14 24.8332 117.148 24.8344 117.157 24.8419C117.173 24.8512 117.183 24.8681 117.189 24.8926C117.191 24.8881 117.193 24.8836 117.195 24.8791C117.207 24.8908 117.217 24.9044 117.223 24.9197C117.225 24.9175 117.228 24.9152 117.23 24.9129C117.247 24.9401 117.271 24.9649 117.303 24.9874C117.319 25.0111 117.337 25.0336 117.356 25.0551C117.358 25.0528 117.361 25.0505 117.363 25.0483C117.368 25.0573 117.372 25.0664 117.377 25.0754C117.379 25.0731 117.381 25.0708 117.384 25.0686C117.391 25.0789 117.394 25.0902 117.394 25.1024C117.402 25.1009 117.409 25.1032 117.415 25.1092C117.427 25.125 117.441 25.1408 117.453 25.1566C117.455 25.1543 117.458 25.152 117.46 25.1498C117.469 25.1697 117.48 25.1878 117.495 25.2039C117.497 25.2017 117.5 25.1994 117.502 25.1972C117.505 25.209 117.51 25.2202 117.516 25.231C117.518 25.2288 117.521 25.2265 117.523 25.2242C117.53 25.2318 117.535 25.2409 117.537 25.2513C117.558 25.2711 117.58 25.2903 117.603 25.3088C117.601 25.3111 117.598 25.3134 117.596 25.3156C117.648 25.3739 117.697 25.436 117.742 25.5017C117.748 25.5077 117.755 25.5099 117.763 25.5084C117.762 25.5177 117.763 25.5268 117.767 25.5355C117.779 25.5409 117.79 25.5488 117.798 25.5592C117.796 25.5614 117.793 25.5637 117.791 25.566C117.799 25.5774 117.808 25.5876 117.819 25.5964C117.81 25.5987 117.81 25.601 117.819 25.6032C117.905 25.7249 117.989 25.849 118.07 25.9754C118.061 25.9776 118.061 25.9799 118.07 25.9821C118.11 26.0428 118.146 26.1059 118.178 26.1716C118.187 26.1764 118.194 26.182 118.202 26.1885C118.197 26.1908 118.193 26.1931 118.188 26.1953C118.207 26.2179 118.223 26.2416 118.237 26.2664C118.24 26.2765 118.245 26.2855 118.251 26.2934C118.742 27.2891 119.02 28.3447 119.083 29.4604C119.117 30.0154 119.115 30.5703 119.076 31.1251C118.855 31.5333 118.632 31.9417 118.411 32.3499C115.369 32.3545 112.328 32.3589 109.287 32.3635C109.319 32.8912 109.388 33.4145 109.492 33.9334C109.63 34.5242 109.857 35.0791 110.175 35.5981C110.597 36.1991 111.167 36.6107 111.885 36.8331C112.332 36.966 112.789 37.0382 113.257 37.0496C114 37.0735 114.733 37.0036 115.458 36.8399C116.101 36.6698 116.721 36.4397 117.317 36.1496C117.438 36.0865 117.556 36.02 117.673 35.95C118.052 36.5675 118.433 37.1844 118.815 37.8008C118.317 38.2447 117.767 38.6169 117.164 38.9173C116.764 39.1197 116.355 39.3024 115.938 39.4655C115.137 39.7373 114.315 39.9143 113.473 39.9967C112.725 39.9967 111.977 39.9967 111.23 39.9967C110.285 39.9133 109.378 39.6889 108.506 39.3234C107.682 38.9586 106.962 38.4545 106.344 37.8109C105.486 36.9001 104.902 35.8478 104.592 34.6541C104.485 34.2907 104.407 33.9253 104.355 33.5578C104.286 33.159 104.244 32.7575 104.23 32.3533C104.182 31.5071 104.216 30.6624 104.331 29.8191C104.488 28.6101 104.884 27.4856 105.518 26.4457C105.713 26.1396 105.926 25.852 106.159 25.5829C106.21 25.5215 106.26 25.4629 106.309 25.4069C106.36 25.3607 106.408 25.3111 106.452 25.2581C106.457 25.252 106.464 25.2498 106.473 25.2513C106.472 25.2442 106.473 25.2374 106.476 25.231C106.847 24.86 107.268 24.5296 107.74 24.2396C108.373 23.8613 109.048 23.5771 109.767 23.387C110.645 23.1685 111.536 23.0737 112.442 23.1028C113.306 23.1135 114.147 23.2556 114.963 23.5291C115.503 23.724 116.003 23.9801 116.464 24.2971C116.471 24.2971 116.478 24.2971 116.485 24.2971C116.505 24.3151 116.526 24.3331 116.548 24.3513C116.55 24.349 116.553 24.3467 116.555 24.3445C116.56 24.3634 116.573 24.3735 116.593 24.375C116.601 24.3811 116.607 24.389 116.61 24.3987C116.613 24.3964 116.615 24.3941 116.617 24.3919C116.633 24.4039 116.647 24.4175 116.659 24.4325C116.661 24.4303 116.664 24.428 116.666 24.4257C116.68 24.4461 116.697 24.4642 116.715 24.4799C116.717 24.4776 116.72 24.4753 116.722 24.4731C116.724 24.4799 116.727 24.4866 116.729 24.4934C116.731 24.4912 116.734 24.4889 116.736 24.4866C116.75 24.4939 116.759 24.5052 116.764 24.5205C116.771 24.5152 116.779 24.5163 116.788 24.5238C116.786 24.5261 116.783 24.5284 116.781 24.5306C116.795 24.5345 116.805 24.5424 116.812 24.5543C116.814 24.5521 116.817 24.5498 116.819 24.5475C116.844 24.5654 116.867 24.5857 116.886 24.6084ZM112.135 25.5626C112.137 25.5784 112.143 25.5784 112.153 25.5626C112.162 25.5807 112.171 25.5807 112.181 25.5626C112.187 25.5794 112.197 25.5839 112.212 25.5761C112.227 25.5853 112.242 25.5876 112.257 25.5829C112.262 25.5874 112.266 25.5919 112.271 25.5964C112.281 25.5903 112.291 25.5903 112.302 25.5964C112.316 25.5932 112.328 25.5977 112.341 25.61C112.343 25.6054 112.346 25.601 112.348 25.5964C112.354 25.6108 112.364 25.6154 112.376 25.61C112.382 25.6223 112.39 25.6246 112.4 25.6167C112.408 25.6278 112.417 25.6301 112.428 25.6235C112.443 25.6322 112.46 25.639 112.477 25.6438C112.479 25.6528 112.481 25.6528 112.484 25.6438C112.497 25.6472 112.511 25.6506 112.525 25.6539C112.52 25.6652 112.523 25.6663 112.536 25.6573C112.55 25.6642 112.565 25.6699 112.581 25.6742C112.585 25.6885 112.591 25.6919 112.602 25.6844C112.607 25.688 112.61 25.6924 112.612 25.6979C112.617 25.6944 112.621 25.6921 112.626 25.6912C112.647 25.7024 112.668 25.7136 112.689 25.725C112.691 25.7228 112.694 25.7205 112.696 25.7182C112.704 25.7346 112.715 25.7391 112.731 25.7318C112.734 25.7382 112.735 25.745 112.734 25.7521C112.749 25.7572 112.763 25.7583 112.776 25.7554C112.774 25.7577 112.771 25.76 112.769 25.7622C112.78 25.7699 112.791 25.7733 112.804 25.7724C112.81 25.7779 112.812 25.7847 112.811 25.7927C112.823 25.7916 112.835 25.7927 112.846 25.796C112.837 25.8036 112.839 25.8069 112.853 25.8062C112.855 25.8152 112.858 25.8152 112.86 25.8062C112.869 25.8139 112.877 25.8229 112.884 25.8333C112.887 25.8302 112.89 25.8279 112.894 25.8265C112.901 25.835 112.908 25.8429 112.915 25.8502C112.936 25.8553 112.954 25.8655 112.968 25.8806C112.97 25.8784 112.972 25.8761 112.975 25.8739C113.017 25.9227 113.064 25.961 113.117 25.9889C113.126 26.0044 113.138 26.0179 113.152 26.0295C113.156 26.0281 113.16 26.0259 113.163 26.0227C113.179 26.0548 113.206 26.083 113.243 26.1073C113.241 26.1096 113.238 26.1119 113.236 26.1141C113.246 26.1235 113.258 26.1314 113.271 26.1378C113.298 26.1703 113.324 26.2042 113.347 26.2393C113.354 26.2393 113.361 26.2393 113.368 26.2393C113.367 26.2486 113.368 26.2576 113.372 26.2664C113.374 26.2641 113.376 26.2618 113.379 26.2596C113.391 26.2933 113.411 26.3227 113.438 26.3476C113.443 26.3687 113.453 26.3867 113.469 26.4017C113.471 26.3995 113.474 26.3972 113.476 26.3949C113.496 26.4476 113.527 26.4882 113.567 26.5167C113.761 26.8661 113.898 27.2361 113.978 27.6265C114.113 28.34 114.159 29.0619 114.113 29.792C112.504 29.8807 110.895 29.9687 109.287 30.0559C109.313 29.1953 109.432 28.3472 109.645 27.5115C109.752 27.0471 109.957 26.6299 110.258 26.2596C110.739 25.7044 111.344 25.4721 112.073 25.5626C112.086 25.5595 112.098 25.5573 112.111 25.5558C112.113 25.5604 112.116 25.5648 112.118 25.5694C112.123 25.5643 112.128 25.562 112.135 25.5626Z" fill="#2C67B1"/>
<path opacity="0.999" fill-rule="evenodd" clip-rule="evenodd" d="M211.512 27.8222C211.504 27.8277 211.504 27.8344 211.512 27.8425C211.508 27.8581 211.499 27.8694 211.485 27.8763C211.474 27.8897 211.469 27.9055 211.467 27.9237C211.462 27.9279 211.456 27.9313 211.45 27.9338C211.452 27.9361 211.455 27.9384 211.457 27.9406C211.45 27.9428 211.443 27.9451 211.436 27.9474C211.399 28.0083 211.366 28.0692 211.338 28.1301C211.317 28.1325 211.315 28.137 211.331 28.1436C211.319 28.1458 211.317 28.1502 211.324 28.1571C211.315 28.1594 211.306 28.1617 211.297 28.1639C211.306 28.1755 211.304 28.1846 211.29 28.191C211.306 28.1975 211.304 28.2021 211.283 28.2045C211.292 28.2179 211.288 28.2281 211.272 28.235C211.251 28.2826 211.229 28.33 211.206 28.3771C211.197 28.3793 211.197 28.3816 211.206 28.3838C211.187 28.4079 211.171 28.4339 211.157 28.4617C211.163 28.4638 211.168 28.4671 211.171 28.4718C211.166 28.48 211.16 28.48 211.154 28.4718C211.151 28.4797 211.152 28.4877 211.157 28.4955C211.153 28.5023 211.149 28.508 211.143 28.5124C211.128 28.5118 211.126 28.5163 211.136 28.526C211.12 28.5278 211.118 28.5346 211.129 28.5463C211.127 28.5613 211.12 28.5738 211.109 28.5835C211.111 28.5857 211.113 28.588 211.115 28.5902C211.092 28.6109 211.08 28.6369 211.081 28.6681C211.062 28.6703 211.062 28.6726 211.081 28.6748C211.078 28.6923 211.069 28.7047 211.053 28.712C211.058 28.7349 211.051 28.7552 211.032 28.7729C211.037 28.7798 211.04 28.7877 211.039 28.7966C211.018 28.8025 211.013 28.8148 211.025 28.8339C211.011 28.838 211.009 28.8447 211.018 28.8542C211.008 28.8762 210.997 28.8999 210.983 28.9252C210.986 28.9298 210.988 28.9343 210.99 28.9387C210.979 28.9441 210.974 28.9531 210.976 28.9658C210.971 28.9681 210.968 28.9726 210.969 28.9793C210.964 28.9989 210.959 29.0192 210.955 29.0402C210.95 29.0468 210.943 29.0524 210.934 29.0572C210.937 29.076 210.937 29.094 210.934 29.1113C210.929 29.1215 210.922 29.1306 210.913 29.1384C210.906 29.1558 210.906 29.1727 210.913 29.1891C210.91 29.2002 210.903 29.2081 210.893 29.2128C210.893 29.2214 210.895 29.2304 210.9 29.2399C210.895 29.2516 210.891 29.264 210.889 29.2771C210.87 29.2829 210.869 29.2885 210.886 29.294C210.881 29.2985 210.877 29.303 210.872 29.3075C210.872 29.3161 210.874 29.3251 210.879 29.3346C210.872 29.3454 210.865 29.3555 210.858 29.3651C210.861 29.3733 210.863 29.3812 210.865 29.3887C210.857 29.4053 210.85 29.4222 210.844 29.4395C210.835 29.4417 210.835 29.444 210.844 29.4463C210.845 29.4505 210.847 29.4538 210.851 29.4564C210.835 29.4756 210.828 29.4959 210.83 29.5173C210.825 29.5196 210.821 29.5219 210.816 29.5241C210.822 29.5288 210.826 29.5344 210.83 29.541C210.822 29.5486 210.817 29.5577 210.816 29.5681C210.807 29.5703 210.807 29.5726 210.816 29.5748C210.817 29.579 210.819 29.5824 210.823 29.585C210.817 29.6012 210.81 29.6169 210.802 29.6324C210.81 29.6527 210.805 29.6708 210.788 29.6865C210.805 29.6954 210.805 29.7021 210.788 29.7068C210.792 29.7179 210.792 29.7303 210.788 29.744C210.788 29.7577 210.784 29.7724 210.774 29.788C210.791 29.7946 210.788 29.7991 210.767 29.8015C210.786 29.8061 210.786 29.8105 210.767 29.8151C210.784 29.8239 210.784 29.8307 210.767 29.8354C210.786 29.8399 210.786 29.8444 210.767 29.8489C210.771 29.8517 210.773 29.8551 210.774 29.8591C210.766 29.8834 210.757 29.907 210.746 29.9301C210.751 29.9346 210.755 29.9391 210.76 29.9436C210.757 29.954 210.757 29.9652 210.76 29.9775C210.754 29.9794 210.749 29.9828 210.746 29.9876C210.755 29.9989 210.755 30.0102 210.746 30.0215C210.743 30.0219 210.74 30.0241 210.739 30.0282C210.744 30.0328 210.748 30.0372 210.753 30.0418C210.751 30.0499 210.748 30.0499 210.743 30.0418C210.741 30.0548 210.737 30.0673 210.732 30.079C210.737 30.1095 210.737 30.1411 210.732 30.1737C210.715 30.178 210.715 30.1836 210.732 30.1906C210.718 30.2172 210.714 30.2442 210.718 30.2718C210.702 30.2822 210.702 30.2913 210.718 30.2989C210.718 30.3079 210.718 30.317 210.718 30.326C210.711 30.3281 210.707 30.3326 210.705 30.3395C210.71 30.3501 210.712 30.3614 210.711 30.3734C210.702 30.3756 210.702 30.3779 210.711 30.3801C210.702 30.3993 210.702 30.4185 210.711 30.4376C210.706 30.4562 210.702 30.4753 210.701 30.4952C210.694 30.487 210.691 30.4893 210.691 30.5019C210.691 30.5082 210.693 30.5126 210.698 30.5155C210.707 30.5245 210.707 30.5335 210.698 30.5425C210.689 30.5448 210.689 30.5471 210.698 30.5493C210.698 30.5538 210.698 30.5583 210.698 30.5628C210.689 30.5696 210.689 30.5764 210.698 30.5831C210.691 30.6516 210.686 30.7193 210.684 30.7861C210.675 30.7884 210.675 30.7907 210.684 30.7929C210.69 30.801 210.69 30.8101 210.684 30.82C210.675 30.8222 210.675 30.8245 210.684 30.8267C210.684 30.8426 210.684 30.8585 210.684 30.8741C210.675 30.8763 210.675 30.8787 210.684 30.8809C210.69 30.889 210.69 30.8981 210.684 30.908C210.675 30.9102 210.675 30.9125 210.684 30.9147C210.685 30.9378 210.687 30.9592 210.691 30.979C210.682 30.997 210.675 31.0162 210.673 31.0365C210.668 32.029 210.668 33.0215 210.673 34.014C210.682 35.0943 210.773 36.168 210.945 37.2351C211.689 37.3075 212.433 37.3797 213.177 37.4517C213.118 38.1979 213.062 38.9446 213.01 39.6916C211.222 39.6904 209.435 39.6916 207.647 39.695C206.381 39.7474 205.116 39.8004 203.851 39.854C203.845 39.8 203.84 39.7458 203.837 39.6916C202.339 39.6904 200.842 39.6916 199.344 39.695C198.077 39.7473 196.809 39.8003 195.541 39.854C195.539 39.7998 195.536 39.7457 195.534 39.6916C193.598 39.6904 191.662 39.6916 189.725 39.695C189.128 39.7008 188.532 39.711 187.935 39.7254C187.934 39.0735 187.935 38.4216 187.939 37.7697C187.981 37.6885 188.022 37.6073 188.064 37.5261C188.069 37.5194 188.069 37.5126 188.064 37.5058C187.757 36.9972 187.448 36.4897 187.138 35.9832C186.088 34.3544 185.043 32.7235 184 31.0907C185.4 29.4171 186.8 27.7434 188.2 26.0695C187.669 26.0437 187.136 26.0189 186.605 25.9951C186.657 25.2151 186.712 24.4357 186.772 23.6571C191.848 23.6525 196.923 23.6525 201.998 23.6571C202.229 23.8577 202.458 24.0596 202.688 24.2627C202.69 24.2762 202.692 24.2898 202.695 24.3033C202.638 24.8671 202.584 25.431 202.531 25.9951C202.486 26.7033 202.442 27.4116 202.399 28.1199C202.386 28.492 202.377 28.8642 202.371 29.2365C202.364 30.9689 202.367 32.7012 202.378 34.4336C202.401 35.3754 202.488 36.3114 202.639 37.2419C203.382 37.3096 204.125 37.3772 204.868 37.4449C204.867 37.452 204.868 37.4588 204.871 37.4652C205.218 37.4026 205.566 37.3393 205.912 37.2757C206.02 36.6312 206.107 35.9838 206.174 35.3336C206.192 35.1354 206.206 34.9369 206.215 34.7381C206.22 32.7531 206.22 30.7681 206.215 28.7831C206.165 27.98 206.073 27.1815 205.94 26.3876C205.089 26.2593 204.238 26.1285 203.388 25.9951C203.482 25.2142 203.581 24.4338 203.684 23.6537C205.467 23.6525 207.25 23.6537 209.033 23.6571C209.266 23.8612 209.5 24.0653 209.733 24.2695C209.839 25.0059 209.948 25.7412 210.06 26.4755C210.342 26.0636 210.649 25.6688 210.98 25.2913C211.534 24.6803 212.178 24.1807 212.912 23.7924C213.666 23.417 214.467 23.2208 215.315 23.2037C215.978 23.1818 216.633 23.2404 217.28 23.3796C218.093 23.5682 218.811 23.9292 219.432 24.4623C219.807 24.8038 220.112 25.1951 220.348 25.6364C220.689 26.2806 220.912 26.9618 221.016 27.6801C221.078 28.0975 221.113 28.517 221.121 28.9387C221.123 30.6418 221.126 32.3448 221.128 34.0479C221.14 35.1188 221.229 36.1835 221.396 37.2419C222.142 37.3078 222.887 37.3777 223.632 37.4517C223.573 38.1979 223.517 38.9446 223.465 39.6916C221.793 39.6904 220.121 39.6916 218.45 39.695C217.212 39.7446 215.974 39.7975 214.737 39.854C214.68 39.1273 214.627 38.401 214.577 37.675C215.22 37.5379 215.863 37.4026 216.507 37.269C216.562 36.4074 216.617 35.5457 216.67 34.684C216.675 32.8929 216.675 31.102 216.67 29.3109C216.649 28.6657 216.5 28.0499 216.224 27.4635C215.818 26.7379 215.187 26.3488 214.333 26.2962C213.726 26.2547 213.167 26.3923 212.655 26.709C212.295 26.9418 211.978 27.2226 211.704 27.5515C211.694 27.583 211.679 27.6123 211.659 27.6395C211.635 27.6592 211.616 27.6863 211.6 27.7207C211.597 27.7176 211.593 27.7153 211.589 27.7139C211.572 27.7285 211.565 27.7454 211.568 27.7647C211.548 27.7829 211.53 27.8021 211.512 27.8222ZM195.082 25.7921C195.089 25.7921 195.096 25.7921 195.103 25.7921C195.094 25.8564 195.085 25.9207 195.075 25.9849C195.077 25.9914 195.082 25.9958 195.089 25.9985C195.936 26.1286 196.784 26.2594 197.631 26.3909C197.773 27.2099 197.867 28.0344 197.913 28.8643C197.918 30.7929 197.918 32.7215 197.913 34.6501C197.882 35.2756 197.819 35.8982 197.725 36.5178C197.69 36.7627 197.655 37.0075 197.617 37.2521C197.616 37.2633 197.611 37.2723 197.603 37.2791C197.108 37.3674 196.614 37.4543 196.119 37.5397C196.124 37.5083 196.126 37.4767 196.126 37.4449C195.45 37.3879 194.774 37.3259 194.1 37.2588C193.713 36.8652 193.317 36.4806 192.912 36.105C192.617 35.8009 192.318 35.5009 192.013 35.205C191.848 35.0308 191.688 34.8527 191.533 34.6704C190.588 33.3137 189.644 31.9558 188.702 30.5967C189.477 29.6525 190.251 28.7074 191.024 27.7613C191.246 27.5169 191.493 27.3015 191.766 27.115C192.379 26.6887 193.015 26.2962 193.675 25.9376C194.145 25.8907 194.614 25.8422 195.082 25.7921Z" fill="#243974"/>
</g>
</g>
<defs>
<clipPath id="clip0_1177_15662">
<rect width="228.235" height="40" fill="white"/>
</clipPath>
<clipPath id="clip1_1177_15662">
<rect width="228.235" height="40" fill="white"/>
</clipPath>
</defs>
</svg>
