<svg width="32" height="32" viewBox="0 0 32 32" fill="none" xmlns="http://www.w3.org/2000/svg">
<path opacity="0.998" fill-rule="evenodd" clip-rule="evenodd" d="M26.9473 2C26.9725 2.05868 26.9897 2.12083 26.9978 2.18643C27.0957 2.17578 27.1927 2.1676 27.2906 2.1619C27.2129 2.26565 27.1392 2.37194 27.0685 2.48078C27.533 4.34217 27.8209 6.22932 27.9319 8.14224C28.0642 10.1984 28.0037 12.2491 27.7502 14.2943C27.529 16.0811 27.1149 17.8244 26.508 19.524C25.9262 21.1382 25.1284 22.6361 24.1145 24.0179C22.2966 26.4297 19.9354 28.1386 17.0299 29.1446C15.2888 29.7306 13.4982 30.0741 11.6571 30.1748C10.2099 30.2603 8.76269 30.3372 7.31447 30.4054C7.19833 30.4064 7.08421 30.3966 6.9711 30.376C6.87314 30.4374 6.76507 30.4685 6.64792 30.4692C6.29748 30.4773 5.94805 30.4757 5.59761 30.4643C5.75213 30.2516 5.90765 30.0391 6.06217 29.8265C5.95815 29.5271 5.85817 29.2263 5.76425 28.9238C5.45117 27.909 5.13406 26.8951 4.81492 25.8821C4.33925 24.3423 4.0696 22.7691 4.00699 21.1626C3.90802 17.8303 4.86037 14.8214 6.86506 12.1357C7.83357 10.864 8.95357 9.72744 10.223 8.72605C11.2814 7.89474 12.3923 7.15232 13.5558 6.49875C15.7079 5.30469 17.9661 4.34313 20.3323 3.61405C22.4309 2.95298 24.576 2.48855 26.7655 2.22077C26.7887 2.21247 26.8079 2.19775 26.821 2.17661C26.8614 2.11621 26.9039 2.05734 26.9473 2ZM12.4752 7.16105C12.4701 7.17485 12.46 7.18139 12.4449 7.18067C12.4499 7.16688 12.46 7.16033 12.4752 7.16105ZM12.4449 7.18067C12.4398 7.19447 12.4297 7.20101 12.4146 7.2003C12.4196 7.1865 12.4297 7.17996 12.4449 7.18067ZM12.4146 7.2003C12.356 7.24664 12.2954 7.29079 12.2328 7.33276C12.2196 7.3393 12.2055 7.3393 12.1924 7.33276C12.2651 7.28613 12.3398 7.24198 12.4146 7.2003Z" fill="#1A6332"/>
<path fill-rule="evenodd" clip-rule="evenodd" d="M22.3507 8.32013C21.1358 10.0141 19.9208 11.7083 18.7049 13.4027C18.6514 13.474 18.5978 13.5459 18.5433 13.6185C18.3231 13.7926 18.101 13.9643 17.8768 14.1337C17.5617 14.4199 17.2839 14.7355 17.0436 15.0805C16.88 15.3192 16.7224 15.5613 16.5689 15.8066C16.1286 16.3379 15.6913 16.871 15.256 17.4059C15.0116 17.3045 14.7571 17.2669 14.4935 17.2931C14.4077 17.3244 14.3481 17.3817 14.3168 17.4648C14.3118 17.5714 14.2956 17.676 14.2663 17.7788C14.1098 18.2943 13.9209 18.7979 13.7008 19.2898C11.2537 22.6697 8.80467 26.0483 6.3536 29.4255C5.885 27.9645 5.43255 26.4992 4.99526 25.0298C4.57412 23.4434 4.38224 21.831 4.41961 20.1925C4.50747 17.7727 5.19825 15.5324 6.48994 13.4714C7.30898 12.1925 8.28961 11.0363 9.43385 10.0029C10.7467 8.8323 12.1738 7.81513 13.7159 6.95137C15.864 5.75447 18.1191 4.7929 20.4824 4.06668C22.3618 3.47656 24.2786 3.0432 26.2338 2.7666C26.246 2.76987 26.2571 2.77314 26.2692 2.77641C24.9704 4.62972 23.6646 6.47762 22.3507 8.32013Z" fill="#ADD035"/>
<path fill-rule="evenodd" clip-rule="evenodd" d="M18.7269 13.4027C19.9419 11.7089 21.1578 10.0147 22.3727 8.32013C23.7129 6.46443 25.0611 4.61327 26.4175 2.7666C26.5841 3.45332 26.7184 4.14668 26.8214 4.84672C27.292 7.99118 27.3324 11.1408 26.9426 14.2956C26.7063 16.1658 26.2619 17.9875 25.6095 19.7608C25.0117 21.3681 24.1936 22.853 23.1554 24.2154C21.2366 26.6597 18.7542 28.3195 15.7073 29.1949C14.3308 29.5834 12.927 29.8221 11.4959 29.9112C10.2366 29.9839 8.97819 30.0558 7.71883 30.127C7.55017 30.1373 7.38252 30.1406 7.21387 30.1368C7.57037 29.7874 7.86829 29.3966 8.10764 28.9643C8.81863 27.9713 9.54274 26.9867 10.279 26.0109C10.7304 25.3979 11.1748 24.7798 11.6121 24.1565C11.712 24.0025 11.806 23.8455 11.8948 23.6855C12.018 23.5494 12.1514 23.4236 12.2938 23.3078C13.2471 22.5548 14.2318 21.8434 15.2478 21.1737C15.2447 21.1321 15.2286 21.0962 15.1973 21.0658C14.5681 21.2058 13.9409 21.3497 13.3138 21.4975C13.3067 21.4942 13.3006 21.4909 13.2936 21.4877C13.6541 20.8727 14.0389 20.2741 14.4499 19.6921C14.5247 19.5931 14.6075 19.4999 14.6974 19.4125C14.8054 19.3345 14.9266 19.305 15.0609 19.3242C15.2144 19.3534 15.369 19.3632 15.5255 19.3536C15.7164 19.3183 15.8881 19.243 16.0406 19.1279C16.1577 19.0368 16.2728 18.9419 16.3839 18.8434C16.4708 18.7758 16.5596 18.712 16.6516 18.652C16.6919 18.5689 16.6667 18.5116 16.5758 18.4803C16.4728 18.4544 16.3688 18.438 16.2627 18.4313C16.0002 18.4202 15.7376 18.4136 15.475 18.4116C15.4669 18.4086 15.4598 18.4037 15.4548 18.3969C15.5235 18.2967 15.575 18.1888 15.6113 18.0731C15.8184 17.7683 16.0406 17.4739 16.2779 17.1901C16.6576 16.7372 17.0343 16.2827 17.409 15.8262C17.5898 15.6507 17.7938 15.5052 18.02 15.3896C18.3856 15.2088 18.7623 15.0551 19.1511 14.9284C19.2268 14.9073 19.2622 14.8599 19.2571 14.7862C19.238 14.7605 19.2127 14.7426 19.1814 14.7322C19.0612 14.7094 18.94 14.693 18.8178 14.6831C18.6825 14.6798 18.5482 14.67 18.4139 14.6537C18.3573 14.6516 18.3038 14.6402 18.2523 14.6194C18.324 14.4727 18.4068 14.332 18.4997 14.1974C18.7441 13.8492 18.9865 13.4992 19.2268 13.1476C19.241 13.0667 19.2097 13.039 19.1309 13.0642C18.9814 13.2228 18.8249 13.3749 18.6613 13.5204C18.6795 13.4809 18.7017 13.4416 18.7269 13.4027Z" fill="#E6EB9C"/>
<path fill-rule="evenodd" clip-rule="evenodd" d="M22.3528 8.31934C22.3599 8.31934 22.366 8.31934 22.373 8.31934C21.1581 10.0139 19.9422 11.7081 18.7272 13.4019C18.7202 13.4019 18.7141 13.4019 18.707 13.4019C19.923 11.7075 21.1379 10.0133 22.3528 8.31934Z" fill="#317139"/>
</svg>
